<?xml version="1.0" encoding="UTF-8" standalone="no"?>
<!-- Creator: CorelDRAW X6 -->

<svg
   xmlns:dc="http://purl.org/dc/elements/1.1/"
   xmlns:cc="http://creativecommons.org/ns#"
   xmlns:rdf="http://www.w3.org/1999/02/22-rdf-syntax-ns#"
   xmlns:svg="http://www.w3.org/2000/svg"
   xmlns="http://www.w3.org/2000/svg"
   xmlns:xlink="http://www.w3.org/1999/xlink"
   xmlns:sodipodi="http://sodipodi.sourceforge.net/DTD/sodipodi-0.dtd"
   xmlns:inkscape="http://www.inkscape.org/namespaces/inkscape"
   xml:space="preserve"
   width="420mm"
   height="297mm"
   version="1.1"
   style="shape-rendering:geometricPrecision; text-rendering:geometricPrecision; image-rendering:optimizeQuality; fill-rule:evenodd; clip-rule:evenodd"
   viewBox="0 0 42000 29700"
   id="svg2"
   inkscape:version="0.92.4 5da689c313, 2019-01-14"
   sodipodi:docname="Periodic_table2.svg"><metadata
   id="metadata5978"><rdf:RDF><cc:Work
       rdf:about=""><dc:format>image/svg+xml</dc:format><dc:type
         rdf:resource="http://purl.org/dc/dcmitype/StillImage" /><dc:title></dc:title></cc:Work></rdf:RDF></metadata><sodipodi:namedview
   pagecolor="#ffffff"
   bordercolor="#666666"
   borderopacity="1"
   objecttolerance="10"
   gridtolerance="10"
   guidetolerance="10"
   inkscape:pageopacity="0"
   inkscape:pageshadow="2"
   inkscape:window-width="1276"
   inkscape:window-height="974"
   id="namedview5976"
   showgrid="false"
   inkscape:zoom="0.92173588"
   inkscape:cx="620.70965"
   inkscape:cy="352.59558"
   inkscape:window-x="0"
   inkscape:window-y="18"
   inkscape:window-maximized="0"
   inkscape:current-layer="svg2" /><defs
   id="defs4"><inkscape:tag
     id="Fijar 1" /><font
     id="FontID2315"
     horiz-adv-x="722"
     font-variant="normal"
     style="fill-rule:nonzero"
     font-weight="400"><font-face
       font-family="Times New Roman"
       id="font-face7" /><missing-glyph
       id="missing-glyph9"><path
         d="M0 0z"
         id="path11" /></missing-glyph><glyph
       unicode="M"
       horiz-adv-x="889"
       id="glyph13"><path
         d="M409.005 0l-256.008 557.834 0 -442.834c0,-40.8311 4.50954,-66.3351 13.3379,-76.4986 12.1662,-13.6649 31.4986,-20.5041 57.9973,-20.5041l23.6649 0 0 -17.9973 -232.997 0 0 17.9973 23.8283 0c28.3379,0 48.3379,8.50136 60.3406,25.5041 7.16621,10.5041 10.8311,34.3324 10.8311,71.4986l0 432.997c0,29.3324 -3.33787,50.6676 -9.83651,63.6649 -4.6594,9.50954 -13.1608,17.3433 -25.4905,23.842 -12.5068,6.33515 -32.3433,9.49591 -59.673,9.49591l0 17.9973 190 0 239.005 -518.324 236.826 518.324 188.174 0 0 -17.9973 -23.1744 0c-28.8283,0 -48.9918,-8.50136 -60.9946,-25.5041 -7.16621,-10.4905 -10.8311,-34.3324 -10.8311,-71.4986l0 -432.997c0,-40.8311 4.6594,-66.3351 13.8283,-76.4986 12.1662,-13.6649 31.4986,-20.5041 57.9973,-20.5041l23.1744 0 0 -17.9973 -284.005 0 0 17.9973 23.8283 0c28.6785,0 48.6785,8.50136 60.3406,25.5041 7.16621,10.5041 10.8311,34.3324 10.8311,71.4986l0 442.834 -255 -557.834 -15.9946 0z"
         id="path15" /></glyph></font><font
     id="FontID2314"
     horiz-adv-x="645"
     font-variant="normal"
     style="fill-rule:nonzero"
     font-style="normal"
     font-weight="400"><font-face
       font-family="Ebrima"
       id="font-face18" /><missing-glyph
       id="missing-glyph20"><path
         d="M0 0z"
         id="path22" /></missing-glyph></font><font
     id="FontID2312"
     horiz-adv-x="599"
     font-variant="normal"
     style="fill-rule:nonzero"
     font-style="normal"
     font-weight="400"><font-face
       font-family="Tahoma"
       id="font-face25" /><missing-glyph
       id="missing-glyph27"><path
         d="M0 0z"
         id="path29" /></missing-glyph><glyph
       unicode="w"
       horiz-adv-x="742"
       id="glyph31"><path
         d="M726.986 545l-137.977 -545 -84.8274 0 -133.194 420.169 -132.166 -420.169 -84.3314 0 -139.501 545 94.9968 0 96.6976 -422.011 129.155 422.011 75.6502 0 132.662 -422.011 91.0283 422.011 91.8078 0z"
         id="path33" /></glyph><glyph
       unicode="c"
       horiz-adv-x="461"
       id="glyph35"><path
         d="M282.652 -12.0119c-37.4885,0 -71.8234,5.8465 -103.146,17.3623 -31.1813,11.4804 -58.1816,28.9845 -80.6817,52.4768 -22.5002,23.3506 -39.8271,52.8311 -52.3351,88.5125 -12.3308,35.6459 -18.4962,77.4927 -18.4962,125.647 0,47.835 6.51974,89.1857 19.3466,124.017 12.8269,34.831 30.012,63.9926 51.4847,87.8393 21.508,23.6695 48.3311,41.9885 80.5046,54.8154 31.9963,12.8269 66.5084,19.3466 103.324,19.3466 30.012,0 59.032,-4.18114 86.8471,-12.6851 27.8506,-8.46857 52.654,-18.319 74.5163,-29.3034l0 -103.005 -5.35044 0c-6.4843,5.49217 -14.9883,11.8347 -25.3348,18.9923 -10.1694,6.98037 -22.6773,14.3151 -37.3468,21.8269 -12.6497,6.34257 -27.638,12.0119 -45.0004,16.8308 -17.3269,4.85437 -33.9806,7.3347 -49.9965,7.3347 -47.4807,0 -85.8196,-18.0001 -114.662,-53.8233 -28.8073,-35.8231 -43.335,-86.4928 -43.335,-152.186 0,-64.1698 13.9962,-114.308 41.8468,-150.167 27.8152,-35.8231 66.6501,-53.8233 116.151,-53.8233 30.012,0 58.6776,6.1654 85.6778,18.4962 27.1774,12.1891 50.9886,28.1695 72.0006,47.5161l5.35044 0 0 -103.005c-9.17724,-4.32287 -20.5159,-9.3544 -34.1932,-15.3426 -13.6418,-6.1654 -26.1498,-10.4883 -37.1696,-13.5001 -15.6615,-4.50004 -29.6577,-8.00794 -41.9885,-10.4883 -12.508,-2.51577 -28.4884,-3.68507 -48.0122,-3.68507z"
         id="path37" /></glyph><glyph
       unicode="0"
       horiz-adv-x="545"
       id="glyph39"><path
         d="M505.988 364.007c0,-130.501 -18.9923,-226.348 -56.8351,-287.506 -37.9846,-61.0162 -96.485,-91.4889 -175.643,-91.4889 -80.1857,0 -138.828,31.1459 -176.352,93.3314 -37.4885,62.1501 -56.1619,157.005 -56.1619,284.672 0,131.139 18.9923,227.163 56.8351,287.825 37.9846,60.8391 96.485,91.17 175.679,91.17 80.1502,0 138.828,-31.5002 176.316,-94.359 37.5239,-62.8233 56.1619,-157.324 56.1619,-283.644zm-124.973 -221.494c9.49614,24.1655 16.1576,54.4965 20.1616,91.3117 3.8268,36.6735 5.81107,80.0085 5.81107,130.182 0,49.6776 -1.98427,92.9771 -5.81107,129.651 -4.00397,36.8507 -10.8426,67.3588 -20.5159,91.6661 -9.81504,24.8388 -23.3151,43.5122 -40.3232,56.339 -17.1852,12.8269 -39.5082,19.3466 -66.8273,19.3466 -27.0002,0 -49.3587,-6.51974 -66.6856,-19.3466 -17.5041,-12.8269 -31.3231,-31.8191 -41.3153,-57.154 -9.85047,-24.8388 -16.5119,-56.0201 -20.1616,-93.6858 -3.5079,-37.8074 -5.35044,-80.3274 -5.35044,-127.808 0,-50.6697 1.4882,-93.1897 4.6772,-127.347 2.9764,-34.016 9.81504,-64.6659 20.3387,-91.6661 9.31897,-25.0159 22.8191,-44.3271 40.3232,-57.8272 17.3269,-13.5001 40.1814,-20.1616 68.1738,-20.1616 27.0002,0 49.3232,6.4843 66.8273,19.3112 17.3269,12.8269 31.0042,31.8546 40.6775,57.1894z"
         id="path41" /></glyph><glyph
       unicode="t"
       horiz-adv-x="334"
       id="glyph43"><path
         d="M231.344 -10.9843c-50.1736,0 -89.3275,14.1379 -117.355,42.6618 -27.9923,28.3112 -41.9885,73.3116 -41.9885,134.647l0 301.68 -62.0084 0 0 76.9967 62.0084 0 0 157.005 91.985 0 0 -157.005 169.017 0 0 -76.9967 -169.017 0 0 -259.018c0,-27.638 0.5315,-48.9689 1.52363,-63.8155 0.992134,-14.9883 4.64177,-29.0199 11.1615,-41.9885 5.49217,-11.3387 14.4922,-20.0198 26.823,-25.6892 12.508,-5.66934 29.1616,-8.504 50.3508,-8.504 14.9883,0 29.4805,2.3386 43.4767,6.83864 13.9962,4.50004 24.1655,8.1851 30.3309,11.1615l5.35044 0 0 -82.3117c-17.3269,-4.9961 -34.831,-8.85834 -52.5122,-11.5158 -17.823,-2.83467 -34.1577,-4.1457 -49.1461,-4.1457z"
         id="path45" /></glyph><glyph
       unicode="-"
       horiz-adv-x="363"
       id="glyph47"><path
         d="M319.006 274.998l-274.998 0 0 86.9889 274.998 0 0 -86.9889z"
         id="path49" /></glyph><glyph
       unicode="L"
       horiz-adv-x="497"
       id="glyph51"><path
         d="M495.996 0l-422.011 0 0 726.986 97.0165 0 0 -640.989 324.995 0 0 -85.9967z"
         id="path53" /></glyph><glyph
       unicode="h"
       horiz-adv-x="557"
       id="glyph55"><path
         d="M495.004 0l-92.0204 0 0 310.502c0,24.9805 -1.13387,48.3311 -3.64964,69.9809 -2.51577,21.6852 -7.0158,39.0121 -13.819,52.0162 -7.51187,13.6773 -18.0001,23.8466 -31.3585,30.5081 -13.3229,6.66147 -31.5002,9.9922 -54.6737,9.9922 -22.6419,0 -46.1342,-6.1654 -70.4769,-18.319 -24.1655,-12.1891 -47.835,-28.0278 -71.0084,-47.5161l0 -407.165 -91.985 0 0 760.01 91.985 0 0 -275.671c27.3191,24.4844 54.3193,43.1578 81.0006,56.1619 26.823,13.004 54.9926,19.4883 84.5085,19.4883 53.8233,0 95.8118,-17.6458 126.001,-52.9729 30.3309,-35.1853 45.4964,-86.3511 45.4964,-153.356l0 -353.66z"
         id="path57" /></glyph><glyph
       unicode="y"
       horiz-adv-x="498"
       id="glyph59"><path
         d="M495.004 545l-293.353 -746.014 -98.3275 0 97.8315 227.34 -198.143 518.673 98.5047 0 149.316 -404.507 148.501 404.507 95.67 0z"
         id="path61" /></glyph><glyph
       unicode="2"
       horiz-adv-x="545"
       id="glyph63"><path
         d="M500.992 0l-447.984 0 0 102.509c32.1735,30.6498 62.6462,59.8115 91.3117,87.8393 28.6656,27.9923 56.6934,57.154 84.0125,87.4849 55.3469,60.8391 93.1543,109.489 113.351,146.163 20.1616,36.4964 30.3309,74.3392 30.3309,113.493 0,20.1616 -3.189,37.8428 -9.53157,53.1855 -6.30714,15.3426 -15.1655,27.9923 -26.1498,37.9846 -11.3387,9.85047 -24.6616,17.1852 -39.6499,22.0041 -15.0237,4.85437 -31.3585,7.3347 -49.3587,7.3347 -17.1497,0 -34.6538,-2.16143 -52.4768,-6.66147 -17.8584,-4.32287 -34.831,-9.85047 -51.024,-16.3348 -13.819,-5.49217 -27.0002,-12.1536 -39.6499,-19.9844 -12.6851,-7.8662 -22.9962,-14.5277 -30.827,-20.0198l-5.35044 0 0 103.182c20.1616,10.1694 48.1539,19.8072 84.1542,29.4805 36.0003,9.49614 70.0163,14.3505 102.19,14.3505 67.6423,0 120.651,-18.0001 159.167,-53.8587 38.3389,-36.0003 57.5083,-84.6503 57.5083,-146.163 0,-28.3112 -3.36617,-54.4965 -10.0276,-78.4849 -6.66147,-23.9884 -15.8387,-46.3468 -27.4963,-66.8273 -11.9765,-21.1891 -26.5041,-42.1657 -43.4767,-63.0005 -16.8308,-20.6931 -34.6892,-41.1736 -53.5044,-61.3351 -30.6853,-33.1656 -64.6659,-67.6777 -102.19,-103.501 -37.6657,-35.6814 -67.6423,-63.9926 -90.0007,-84.8274l356.672 0 0 -84.0125z"
         id="path65" /></glyph><glyph
       unicode="©"
       horiz-adv-x="928"
       id="glyph67"><path
         d="M887.003 320.317c0,-116.647 -41.3507,-216.143 -123.84,-298.668 -82.4888,-82.4888 -182.163,-123.662 -298.668,-123.662 -116.505,0 -216.179,41.1736 -298.668,123.662 -82.4888,82.5243 -123.84,182.021 -123.84,298.668 0,116.505 41.3507,215.86 123.84,298.172 82.4888,82.3471 182.163,123.521 298.668,123.521 116.505,0 216.179,-41.1736 298.668,-123.521 82.4888,-82.3117 123.84,-181.667 123.84,-298.172zm-57.0123 0c0,101.694 -35.6459,188.505 -107.15,260.187 -71.3273,71.6462 -157.501,107.505 -258.345,107.505 -100.843,0 -186.982,-35.8586 -258.345,-107.505 -71.4691,-71.6817 -107.15,-158.493 -107.15,-260.187 0,-101.8 35.6814,-188.647 107.15,-260.471 71.3628,-71.8588 157.501,-107.859 258.345,-107.859 100.843,0 187.017,36.0003 258.345,107.859 71.5045,71.8234 107.15,158.671 107.15,260.471zm-207.994 -195.663c-21.8269,-9.81504 -43.6539,-18.319 -65.4808,-25.6537 -21.8624,-7.3347 -47.5161,-10.9843 -77.1738,-10.9843 -67.9966,0 -121.855,20.1616 -161.186,60.3076 -39.4728,40.1814 -59.1737,98.1858 -59.1737,174.013 0,74.8352 20.3387,132.84 61.0162,174.013 40.8192,41.1381 93.8275,61.654 159.344,61.654 27.0002,0 53.0083,-3.5079 77.6699,-10.6654 24.8388,-7.15754 46.4886,-15.5198 64.9848,-25.0159l0 -88.3353 -7.83077 0c-13.9962,12.3308 -33.4845,24.0238 -58.1816,35.1853 -24.8033,11.1615 -49.8193,16.8308 -74.8352,16.8308 -40.146,0 -72.1423,-13.3229 -96.1661,-40.0043 -23.9884,-26.6813 -36.0003,-67.8194 -36.0003,-123.662 0,-52.654 11.5158,-92.8354 34.3349,-120.686 22.8545,-27.8152 55.3469,-41.6342 97.8315,-41.6342 27.3545,0 53.3626,5.81107 77.6699,17.6458 24.5199,11.8347 43.0161,23.3506 55.3469,34.3349l7.83077 0 0 -87.3432z"
         id="path69" /></glyph><glyph
       unicode="C"
       horiz-adv-x="600"
       id="glyph71"><path
         d="M357.841 -13.004c-47.5161,0 -91.3472,8.00794 -131.174,23.8466 -39.8271,15.9804 -74.3392,39.8271 -103.324,71.3273 -29.0199,31.5002 -51.5201,71.0084 -67.3588,118.17 -15.9804,47.1618 -23.9884,101.339 -23.9884,162.497 0,60.8391 7.6536,113.812 23.1734,158.989 15.4844,45.1775 37.9846,84.6857 67.6777,118.17 28.9845,32.4924 63.3194,57.3312 103.146,74.3392 39.6854,17.1497 84.1896,25.6537 133.336,25.6537 24.3427,0 47.339,-1.8071 68.6698,-5.315 21.3309,-3.68507 40.9964,-8.1851 59.3509,-13.6773 15.4844,-4.81894 31.642,-10.9843 47.9768,-18.319 16.5119,-7.3347 32.6695,-15.3426 48.6854,-24.1655l0 -116.505 -7.83077 0c-8.504,7.6536 -19.3466,17.008 -32.6695,27.8152 -13.3584,10.8426 -29.6931,21.508 -48.8626,32.1735 -18.4962,9.85047 -38.6578,18.0001 -60.4847,24.3427 -21.8269,6.4843 -46.9846,9.6733 -75.6502,9.6733 -30.8624,0 -60.1658,-6.34257 -87.8393,-19.0277 -27.6734,-12.6497 -52.0162,-31.3231 -72.6738,-55.8075 -20.5159,-24.6616 -36.4964,-55.6658 -47.835,-93.0125 -11.5158,-37.1696 -17.1497,-79.1581 -17.1497,-125.824 0,-49.6776 5.98824,-92.3393 18.0001,-128.162 12.1536,-35.8586 28.4884,-66.0123 49.3232,-90.6739 20.1616,-23.9884 44.0082,-42.1657 71.3273,-54.3548 27.3191,-12.1536 56.339,-18.1419 86.8471,-18.1419 27.9923,0 53.8233,3.33073 77.6345,10.1694 23.6695,6.83864 44.8586,15.4844 63.3548,25.8309 18.0001,10.1694 33.3428,20.4805 46.4886,31.0042 13.004,10.4883 23.1734,19.4883 30.6853,27.0002l7.3347 0 0 -115.336c-16.0159,-7.51187 -31.0042,-14.6694 -45.1775,-21.6852 -14.1733,-6.83864 -31.3231,-13.5001 -51.4847,-19.9844 -21.1891,-6.83864 -40.8547,-12.0119 -59.032,-15.6615 -18.0001,-3.5079 -41.4925,-5.35044 -70.4769,-5.35044z"
         id="path73" /></glyph><glyph
       unicode=","
       horiz-adv-x="302"
       id="glyph75"><path
         d="M243.994 139.005l-136.666 -319.999 -71.3273 0 85.9967 319.999 121.997 0z"
         id="path77" /></glyph><glyph
       unicode="p"
       horiz-adv-x="552"
       id="glyph79"><path
         d="M525.016 286.656c0,-90.6385 -21.8624,-162.993 -65.3391,-216.817 -43.6893,-53.8233 -98.859,-80.8235 -165.509,-80.8235 -27.0002,0 -50.9886,3.15357 -72.0006,9.31897 -20.8348,6.1654 -42.3429,15.6615 -64.1698,28.6656l0 -228.014 -91.985 0 0 746.014 91.985 0 0 -57.154c22.8191,20.4805 48.3311,37.6657 76.1817,51.4847 27.9923,13.819 58.5005,20.6576 91.3117,20.6576 62.8588,0 111.686,-24.6616 146.836,-74.162 35.1853,-49.5004 52.6894,-115.832 52.6894,-199.171zm-95.0322 -9.81504c0,62.1501 -9.9922,110.339 -29.7994,144.674 -20.0198,34.3349 -52.3351,51.4847 -97.1937,51.4847 -26.0081,0 -51.3075,-5.8465 -75.6502,-17.3269 -24.3427,-11.5158 -47.5161,-26.327 -69.3431,-44.6815l0 -308.66c24.1655,-11.8347 44.8232,-19.8427 62.0084,-23.9884 17.1497,-4.18114 36.8153,-6.34257 58.9965,-6.34257 47.835,0 84.8274,17.3269 111.332,52.1579 26.5041,34.831 39.6499,85.6778 39.6499,152.682z"
         id="path81" /></glyph><glyph
       unicode="m"
       horiz-adv-x="839"
       id="glyph83"><path
         d="M685.99 0l0 315.321c0,25.0159 -0.992134,48.1894 -2.9764,69.5202 -1.84253,21.3309 -6.02367,37.9846 -12.1891,50.1736 -6.4843,12.9686 -15.8387,22.5002 -27.8152,28.6656 -12.0119,6.1654 -28.3467,9.31897 -48.8272,9.31897 -19.0277,0 -39.1893,-5.8465 -60.8391,-17.5041 -21.6852,-11.4804 -44.1854,-28.3467 -67.3588,-50.3154 0.354333,-5.5276 0.8504,-12.0119 1.34647,-19.6655 0.496067,-7.68904 0.673234,-16.6891 0.673234,-27.1774l0 -358.337 -92.0204 0 0 315.321c0,25.0159 -0.992134,48.1894 -2.9764,69.5202 -1.84253,21.3309 -6.02367,37.9846 -12.1891,50.1736 -6.4843,12.9686 -15.8033,22.5002 -27.8152,28.6656 -12.0119,6.1654 -28.3467,9.31897 -48.8272,9.31897 -20.0198,0 -40.8547,-6.1654 -62.6816,-18.6734 -21.8269,-12.508 -42.9807,-28.3112 -63.4966,-47.6579l0 -406.669 -91.985 0 0 545 91.985 0 0 -60.6619c24.1655,23.9884 48.0122,42.6618 71.6817,55.843 23.6695,13.1458 49.6421,19.8072 77.9888,19.8072 32.1735,0 60.8391,-7.3347 85.8196,-22.0041 24.8388,-14.634 43.8311,-38.6578 56.8351,-72.1423 27.8506,30.827 54.8508,54.3193 81.1778,70.158 26.5041,16.0159 55.1697,23.9884 86.1739,23.9884 23.4923,0 44.8232,-3.64964 63.9926,-10.9843 19.1694,-7.3347 36.0003,-18.9923 50.3508,-35.327 14.634,-16.6891 25.9726,-37.1696 33.9806,-62.0084 8.00794,-24.6616 12.0119,-55.6658 12.0119,-93.1543l0 -358.515 -92.0204 0z"
         id="path85" /></glyph><glyph
       unicode="4"
       horiz-adv-x="545"
       id="glyph87"><path
         d="M521.012 250.018l-85.9967 0 0 -250.018 -94.0047 0 0 250.018 -321.026 0 0 102.473 325.03 374.495 90.0007 0 0 -398.98 85.9967 0 0 -77.9888zm-180.001 77.9888l0 283.502 -244.526 -283.502 244.526 0z"
         id="path89" /></glyph><glyph
       unicode="g"
       horiz-adv-x="552"
       id="glyph91"><path
         d="M395.011 147.651l0 299.022c-22.8545,10.9843 -44.0082,18.6734 -63.4966,23.3151 -19.3466,4.6772 -38.835,7.0158 -58.0044,7.0158 -46.8429,0 -83.5164,-17.008 -110.339,-51.1658 -26.823,-34.1577 -40.1814,-83.0203 -40.1814,-146.659 0,-60.5202 10.1694,-106.335 30.6853,-137.836 20.3387,-31.5002 53.5044,-47.339 99.1425,-47.339 23.8466,0 48.5083,4.6772 73.8431,14.1733 25.3348,9.31897 48.0122,22.6419 68.3509,39.4728zm-310.184 -234.64c6.34257,-2.51577 15.5198,-6.02367 27.4963,-10.1694 12.1891,-4.3583 25.8309,-8.32684 41.3507,-12.1891 17.008,-3.96854 32.6695,-7.3347 46.9846,-9.81504 14.4922,-2.51577 30.1892,-3.8268 47.1618,-3.8268 28.5238,0 52.5122,3.64964 72.3549,11.1615 19.8072,7.3347 35.327,17.6458 46.3114,31.0042 10.5237,13.1458 17.8584,28.4884 22.1813,45.8153 4.18114,17.5041 6.34257,37.3468 6.34257,59.4926l0 47.5161c-24.8388,-21.508 -49.1815,-37.3468 -73.0281,-47.6579 -23.8112,-10.1694 -53.6461,-15.3426 -89.6464,-15.3426 -62.3273,0 -112.005,23.1734 -148.997,69.3431 -36.8507,46.1697 -55.3469,112.501 -55.3469,199.171 0,45.1421 6.34257,85.3235 19.1694,120.154 12.6851,35.0081 29.8349,64.6659 51.3429,89.1503 20.6576,23.3506 45.0004,41.5279 72.9927,54.1776 28.1695,12.6851 57.154,18.9923 87.3432,18.9923 28.3112,0 53.0083,-3.33073 73.6659,-9.9922 20.8348,-6.66147 41.6696,-16.1576 62.5044,-28.4884l5.315 23.4923 86.67 0 0 -482.85c0,-92.3039 -20.3387,-159.982 -60.8391,-203.317 -40.5003,-43.1578 -102.473,-64.843 -185.812,-64.843 -26.8585,0 -54.1776,2.16143 -82.1699,6.34257 -27.8506,4.18114 -54.0004,9.9922 -78.166,17.008l0 95.67 4.81894 0z"
         id="path93" /></glyph><glyph
       unicode="u"
       horiz-adv-x="557"
       id="glyph95"><path
         d="M491.992 0l-91.985 0 0 60.6619c-28.3467,-24.6616 -55.1697,-43.5122 -80.6817,-56.339 -25.3348,-12.8269 -53.6461,-19.3112 -84.8274,-19.3112 -23.8466,0 -46.1697,3.8268 -67.1816,11.6576 -20.9765,7.83077 -39.331,20.1616 -54.9926,37.1696 -15.6615,16.8308 -27.8152,38.1617 -36.3192,63.8155 -8.68117,25.6892 -13.004,57.0123 -13.004,93.6858l0 353.66 91.985 0 0 -310.502c0,-28.8427 1.02757,-52.8311 3.189,-72.0006 2.16143,-18.9923 6.98037,-35.6814 14.3151,-49.9965 7.51187,-13.9962 17.6812,-24.1655 30.5081,-30.6498 13.004,-6.51974 31.3231,-9.85047 55.4886,-9.85047 22.5002,0 46.3468,6.34257 71.6817,19.1694 25.512,12.8269 48.65,28.4884 69.8391,47.1618l0 406.669 91.985 0 0 -545z"
         id="path97" /></glyph><glyph
       unicode="1"
       horiz-adv-x="545"
       id="glyph99"><path
         d="M464.992 0l-355.007 0 0 73.9848 132.025 0 0 488.024 -132.025 0 0 65.9769c49.8547,0 86.67,7.19297 110.339,21.3309 23.4923,14.1733 36.8507,41.1736 39.8271,80.6817l75.8628 0 0 -656.013 128.977 0 0 -73.9848z"
         id="path101" /></glyph><glyph
       unicode=" "
       horiz-adv-x="312"
       id="glyph103" /><glyph
       unicode="."
       horiz-adv-x="302"
       id="glyph105"><path
         d="M210.013 0l-117.001 0 0 139.005 117.001 0 0 -139.005z"
         id="path107" /></glyph><glyph
       unicode="a"
       horiz-adv-x="524"
       id="glyph109"><path
         d="M369.995 134.505l0 150.485c-21.6498,-1.98427 -49.1461,-4.64177 -82.3117,-8.00794 -33.3428,-3.33073 -60.1658,-8.14967 -80.5046,-14.3151 -24.3427,-7.51187 -44.5043,-18.8505 -60.343,-34.1577 -15.8387,-15.3426 -23.8466,-36.8507 -23.8466,-64.347 0,-31.0042 8.85834,-54.4965 26.327,-70.3352 17.5041,-15.8387 43.0161,-23.8112 76.6778,-23.8112 29.0199,0 54.9926,6.1654 78.3431,18.6379 23.3151,12.3308 45.3193,27.6734 65.658,45.8508zm0 -76.1817c-7.51187,-5.66934 -17.5041,-13.3229 -30.012,-23.3151 -12.4725,-9.85047 -24.4844,-17.8584 -36.142,-23.6695 -16.3348,-8.504 -31.9963,-14.9883 -47.1618,-19.4883 -15.0237,-4.50004 -36.1775,-6.83864 -63.4966,-6.83864 -22.5002,0 -43.6893,4.1457 -63.8509,12.6497 -20.1616,8.504 -37.8428,20.3387 -53.15,35.6814 -14.5277,14.9883 -26.1852,33.4845 -35.0081,55.4886 -8.8229,21.8269 -13.1812,45.0004 -13.1812,69.4848 0,37.8428 8.00794,69.8391 23.8466,96.5204 15.9804,26.5041 41.1736,47.4807 75.5085,63.1777 30.4727,13.9962 66.6501,23.6695 108.143,28.9845 41.6696,5.35044 86.4928,9.31897 134.505,12.0119l0 17.823c0,21.6498 -3.33073,39.1539 -9.81504,52.5122 -6.51974,13.3229 -15.5198,23.6695 -27.1774,30.827 -11.8347,7.6536 -26.0081,12.6497 -43.0161,15.1655 -16.8308,2.48033 -34.3349,3.64964 -52.1579,3.64964 -21.1537,0 -45.9925,-3.15357 -74.6581,-9.63787 -28.4884,-6.51974 -57.154,-16.0159 -85.8196,-28.3467l-5.35044 0 0 93.1543c17.008,4.85437 41.1736,10.1694 72.8155,16.0159 31.6774,5.81107 62.8588,8.8229 93.8629,8.8229 37.4885,0 68.9887,-3.01183 94.8196,-8.8229 25.6537,-5.8465 48.8272,-16.3348 69.3431,-31.6774 19.8072,-14.9883 34.6538,-34.5121 44.5043,-58.1461 9.81504,-23.8466 14.6694,-52.8666 14.6694,-87.0243l0 -373.326 -92.0204 0 0 58.3233z"
         id="path111" /></glyph><glyph
       unicode="r"
       horiz-adv-x="360"
       id="glyph113"><path
         d="M355.007 446l-4.85437 0c-6.8032,1.84253 -14.1379,2.83467 -21.6498,3.33073 -7.6536,0.496067 -16.8308,0.673234 -27.6734,0.673234 -24.6616,0 -49.1461,-5.35044 -73.6659,-16.0159 -24.3427,-10.8072 -47.339,-26.6459 -69.1659,-47.835l0 -386.153 -91.985 0 0 545 91.985 0 0 -81.0006c33.5199,29.6577 62.6816,50.4925 87.5204,62.6816 24.8033,12.1536 48.9689,18.319 72.4966,18.319 9.31897,0 16.4765,-0.177167 21.1537,-0.673234 4.6772,-0.496067 9.9922,-1.31103 15.8387,-2.3386l0 -95.9889z"
         id="path115" /></glyph><glyph
       unicode="M"
       horiz-adv-x="770"
       id="glyph117"><path
         d="M697.009 0l-97.0165 0 0 626.32 -189.498 -426.334 -58.5005 0 -188.009 426.334 0 -626.32 -90.0007 0 0 726.986 131.529 0 181.667 -404.826 175.147 404.826 134.682 0 0 -726.986z"
         id="path119" /></glyph><glyph
       unicode="o"
       horiz-adv-x="543"
       id="glyph121"><path
         d="M514.988 272.341c0,-91.8432 -22.1458,-162.497 -66.3312,-212.494 -44.3271,-49.8547 -103.146,-74.8352 -176.671,-74.8352 -75.8274,0 -135.497,25.8309 -178.832,77.3156 -43.4767,51.5201 -65.1619,121.501 -65.1619,210.013 0,90.9928 22.3584,161.647 67.1816,211.998 44.646,50.4925 103.643,75.6502 176.812,75.6502 73.5242,0 132.344,-25.1577 176.671,-75.3313 44.1854,-50.3154 66.3312,-121.005 66.3312,-212.317zm-94.9968 0c0,70.158 -12.8269,122.316 -38.4806,156.509 -25.6892,34.1577 -62.1855,51.1658 -109.524,51.1658 -47.6579,0 -84.4731,-17.008 -110.304,-51.1658 -25.8663,-34.1932 -38.6932,-86.3511 -38.6932,-156.509 0,-67.9966 12.8269,-119.517 38.6932,-154.667 25.8309,-35.1853 62.6462,-52.6894 110.304,-52.6894 47.0201,0 83.5164,17.1852 109.347,51.6973 25.8309,34.4766 38.6578,86.3156 38.6578,155.659z"
         id="path123" /></glyph><glyph
       unicode="l"
       horiz-adv-x="228"
       id="glyph125"><path
         d="M161.009 0l-92.0204 0 0 760.01 92.0204 0 0 -760.01z"
         id="path127" /></glyph><glyph
       unicode="i"
       horiz-adv-x="228"
       id="glyph129"><path
         d="M161.009 0l-92.0204 0 0 545 92.0204 0 0 -545zm6.98037 636.985l-104.989 0 0 95.0322 104.989 0 0 -95.0322z"
         id="path131" /></glyph></font><font
     id="FontID1"
     horiz-adv-x="683"
     font-variant="normal"
     style="fill-rule:nonzero"
     font-style="normal"
     font-weight="400"><font-face
       font-family="Verdana"
       id="font-face134" /><missing-glyph
       id="missing-glyph136"><path
         d="M0 0z"
         id="path138" /></missing-glyph></font><font
     id="FontID0"
     horiz-adv-x="538"
     font-variant="normal"
     style="fill-rule:nonzero"
     font-style="normal"
     font-weight="400,700"><font-face
       font-family="Source Sans Pro"
       id="font-face141" /><missing-glyph
       id="missing-glyph143"><path
         d="M0 0z"
         id="path145" /></missing-glyph><glyph
       unicode="w"
       horiz-adv-x="718"
       id="glyph147"><path
         d="M23.9996 485.992l83.9987 0 71.9989 -281.003c5.3385,-23.3382 10.3463,-45.9678 15.0234,-67.9832 4.62985,-22.0154 9.30694,-44.3615 13.984,-66.9911l4.01568 0c5.29126,22.6296 10.6298,45.1646 15.9683,67.4635 5.3385,22.3461 11.0077,44.8339 17.0076,67.5107l75.0224 281.003 79.983 0 76.0146 -281.003c5.99991,-23.3382 11.8108,-45.9678 17.48,-67.9832 5.6692,-22.0154 11.1494,-44.3615 16.4879,-66.9911l4.01568 0c5.3385,22.6296 10.3463,44.9757 15.0234,66.9911 4.62985,22.0154 9.63764,44.645 14.9761,67.9832l71.0068 281.003 77.9988 0 -130.014 -485.992 -100.014 0 -69.9674 261.02c-5.99991,23.291 -11.5274,46.2985 -16.4879,68.9753 -5.0078,22.6768 -10.5353,46.3457 -16.5352,71.0068l-3.96844 0c-5.3385,-24.661 -10.677,-48.5189 -16.0155,-71.4792 -5.3385,-23.0075 -11.3384,-46.204 -17.9997,-69.5422l-67.9832 -259.98 -95.9985 0 -135.021 485.992z"
         id="path149" /></glyph><glyph
       unicode="U"
       horiz-adv-x="640"
       id="glyph151"><path
         d="M84.0066 655.996l83.9863 0 0 -386.989c0,-39.3407 4.00899,-72.344 12.0067,-99.0099 7.99773,-26.6659 18.8301,-48.0066 32.4971,-64.0021 13.667,-15.9955 29.6625,-27.496 48.0066,-34.5016 18.3239,-6.98536 38.1664,-10.4882 59.4869,-10.4882 22.0089,0 42.5196,3.5028 61.5117,10.4882 18.9921,7.00561 35.4937,18.5061 49.505,34.5016 13.991,15.9955 24.9853,37.3362 32.9831,64.0021 8.01798,26.6659 12.0067,59.6692 12.0067,99.0099l0 386.989 79.9976 0 0 -385.005c0,-52.6635 -5.99324,-96.9852 -18,-132.985 -11.9865,-35.9999 -28.4881,-65.1765 -49.4847,-87.5094 -21.0168,-22.3329 -46.0021,-38.3284 -75.0167,-48.0066 -28.9943,-9.65802 -60.1551,-14.4972 -93.5026,-14.4972 -33.3273,0 -64.488,4.83913 -93.4824,14.4972 -29.0146,9.67827 -53.9999,25.6737 -75.0167,48.0066 -20.9966,22.3329 -37.4982,51.5094 -49.4847,87.5094 -12.0067,35.9999 -18,80.3215 -18,132.985l0 385.005z"
         id="path153" /></glyph><glyph
       unicode="3"
       horiz-adv-x="497"
       id="glyph155"><path
         d="M67.9744 131.98c19.3322,-19.9558 41.8391,-37.6439 67.5208,-53.0075 25.6817,-15.307 57.4863,-22.9605 95.527,-22.9605 38.6643,0 70.2988,10.4881 94.96,31.4644 24.6613,21.0329 37.0202,49.5493 37.0202,85.5491 0,18.6519 -3.51494,35.8297 -10.4881,51.4768 -7.02988,15.6471 -18.5385,29.14 -34.5258,40.4785 -15.9873,11.3385 -36.9635,20.0125 -62.9854,26.0219 -26.0219,6.00941 -57.9965,9.01412 -95.9805,9.01412l0 62.9854c33.9588,0 62.4752,3.00471 85.4924,9.01412 22.9605,6.00941 41.669,14.3432 56.0122,25.0014 14.2865,10.6582 24.4912,23.3006 30.5006,37.984 5.95272,14.6834 8.95742,30.3305 8.95742,46.9981 0,31.351 -9.80781,56.0122 -29.4801,73.9838 -19.6723,18.0282 -46.4879,27.0423 -80.5034,27.0423 -26.6455,0 -51.1934,-6.00941 -73.4736,-18.0282 -22.3369,-12.0188 -43.1997,-27.666 -62.5319,-46.9981l-43.9934 51.9871c24.6613,23.3573 51.817,42.5194 81.5239,57.4863 29.6502,15.0235 63.4957,22.5069 101.48,22.5069 28.0061,0 53.6879,-3.62832 76.9885,-10.9984 23.3573,-7.31334 43.4832,-17.8015 60.491,-31.4644 17.0078,-13.6629 30.1604,-30.5006 39.5147,-50.5131 9.35427,-20.0125 14.0031,-43.0297 14.0031,-68.9948 0,-38.6643 -10.6582,-70.3555 -32.0313,-95.0167 -21.3164,-24.6613 -49.3225,-43.6533 -83.9617,-56.976l0 -4.02517c19.3322,-4.64879 37.3037,-11.5086 53.9713,-20.466 16.6676,-9.01412 31.351,-20.3526 43.9934,-34.0155 12.6991,-13.6629 22.5069,-29.5368 29.5368,-47.5084 6.97318,-18.0282 10.4881,-37.984 10.4881,-59.9807 0,-28.0061 -5.49918,-53.3477 -16.4975,-76.0247 -10.9984,-22.677 -26.0219,-41.8391 -45.0139,-57.4863 -18.992,-15.7038 -41.1588,-27.666 -66.5004,-35.9998 -25.3416,-8.33381 -52.6674,-12.5291 -81.9774,-12.5291 -25.3416,0 -48.5288,2.49447 -69.5051,7.54011 -21.0329,4.98894 -40.195,11.622 -57.4863,19.9558 -17.3479,8.33381 -32.825,17.8582 -46.5446,28.5164 -13.6629,10.6582 -25.7951,21.9967 -36.4533,34.0155l41.9525 53.9713z"
         id="path157" /></glyph><glyph
       unicode="D"
       horiz-adv-x="611"
       id="glyph159"><path
         d="M86.9947 655.99l164.012 0c101.338,0 178.326,-27.9778 230.994,-83.99 52.6674,-56.0122 79.0011,-136.346 79.0011,-241 0,-51.9871 -6.66138,-98.5033 -20.0125,-139.492 -13.3228,-41.0171 -32.9951,-75.6846 -58.9886,-104.002 -25.9935,-28.3463 -57.9965,-50.0028 -96.0088,-64.998 -37.984,-14.9952 -81.6656,-22.5069 -130.988,-22.5069l-168.008 0 0 655.99zm158.002 -587.987c77.3286,0 135.013,22.9888 172.997,68.9948 38.0124,46.006 57.0044,110.664 57.0044,194.002 0,83.3381 -18.992,147.004 -57.0044,190.997 -37.984,43.9934 -95.6687,65.9901 -172.997,65.9901l-73.9838 0 0 -519.984 73.9838 0z"
         id="path161" /></glyph><glyph
       unicode="f"
       horiz-adv-x="292"
       id="glyph163"><path
         d="M300.976 644.976c-17.9528,8 -36.2835,12.0315 -54.9921,12.0315 -45.2913,0 -67.9685,-31.3701 -67.9685,-93.9843l0 -77.0394 102.992 0 0 -66.9606 -102.992 0 0 -419.024 -82.0157 0 0 419.024 -66.0157 0 0 61.9843 66.0157 4.97638 0 77.0394c0,49.9528 11.5276,89.3228 34.5197,117.984 22.9921,28.6614 58.8346,43.0236 107.465,43.0236 15.3701,0 29.8583,-1.51181 43.5276,-4.53543 13.6693,-3.02362 26.1417,-6.80315 37.4803,-11.4646l-18.0157 -63.0551z"
         id="path165" /></glyph><glyph
       unicode="R"
       horiz-adv-x="575"
       id="glyph167"><path
         d="M171.01 344.996l109.984 0c51.3475,0 90.506,10.5084 117.516,31.505 26.9898,20.9966 40.4948,52.8255 40.4948,95.5071 0,43.3295 -13.505,73.6601 -40.4948,90.9919 -27.0101,17.3318 -66.1686,25.9977 -117.516,25.9977l-109.984 0 0 -244.002zm275.993 -344.996l-158.011 277.005 -117.982 0 0 -277.005 -84.0066 0 0 655.996 205.997 0c33.3273,0 64.0021,-3.1586 92.0043,-9.49604 28.0022,-6.33744 52.1574,-16.8256 72.4858,-31.505 20.3487,-14.6591 36.1821,-33.6715 47.5005,-56.9965 11.3386,-23.325 17.0078,-51.9954 17.0078,-85.9908 0,-51.3475 -13.3228,-92.3485 -40.0089,-123.003 -26.6659,-30.6748 -62.3216,-51.6714 -106.987,-63.01l167.001 -285.995 -95.0009 0z"
         id="path169" /></glyph><glyph
       unicode="A"
       horiz-adv-x="538"
       id="glyph171"><path
         d="M365.984 267.024l-30.9921 99.9685c-11.3386,36.6614 -22.2992,73.1969 -33.0079,109.48 -10.6457,36.3465 -21.2913,73.5118 -32,111.559l-3.9685 0c-10.7087,-38.0472 -21.3543,-75.2126 -32,-111.559 -10.7087,-36.2835 -21.6693,-72.8189 -33.0079,-109.48l-32 -99.9685 196.976 0zm21.0394 -67.0236l-238.992 0 -63.0551 -200 -84.9764 0 221.984 656 94.0472 0 221.984 -656 -88 0 -62.9921 200z"
         id="path173" /></glyph><glyph
       unicode="c"
       horiz-adv-x="456"
       id="glyph175"><path
         d="M46.006 241.992c0,40.6769 6.32122,76.8468 18.992,108.51 12.6708,31.6628 29.6786,58.5067 50.995,80.5034 21.3447,21.9967 46.1761,38.6643 74.494,50.0028 28.3463,11.3385 58.1666,16.9794 89.5175,16.9794 32.0029,0 59.4988,-5.81099 82.4877,-17.4897 23.0172,-11.6503 42.8312,-25.1715 59.4988,-40.5068l-40.9887 -52.9792c-14.655,12.6424 -29.8486,22.9888 -45.4958,30.9825 -15.6755,7.99365 -33.1651,12.0188 -52.4973,12.0188 -21.9967,0 -42.3493,-4.50706 -61.0012,-13.5212 -18.6802,-8.98577 -34.6675,-21.8266 -48.0186,-38.4942 -13.3228,-16.6676 -23.8109,-36.51 -31.4927,-59.4988 -7.6535,-22.9888 -11.5086,-48.5005 -11.5086,-76.5066 0,-28.0061 3.68502,-53.3193 10.9984,-75.9964 7.34169,-22.6487 17.518,-42.1509 30.5006,-58.5067 13.0109,-16.3275 28.8565,-28.9982 47.5084,-37.984 18.6802,-9.01412 39.0045,-13.4928 61.0012,-13.4928 23.329,0 44.5037,4.81887 63.4957,14.4849 19.0204,9.66608 35.8297,21.1747 50.5131,34.4974l36.9919 -53.9997c-21.9967,-19.3322 -46.4879,-34.6675 -73.5019,-46.006 -26.9857,-11.3102 -55.1619,-16.9794 -84.5003,-16.9794 -32.0029,0 -61.9933,5.66926 -89.9994,16.9794 -28.0061,11.3385 -52.1572,27.836 -72.5098,49.5209 -20.3243,21.6566 -36.3116,48.3304 -47.9902,79.9932 -11.6503,31.6628 -17.4897,67.4925 -17.4897,107.489z"
         id="path177" /></glyph><glyph
       unicode="t"
       horiz-adv-x="338"
       id="glyph179"><path
         d="M96.0088 418.986l-71.9995 0 0 62.0217 75.9964 4.98894 10.0062 136.005 68.9948 0 0 -136.005 130.988 0 0 -67.0106 -130.988 0 0 -269.998c0,-29.9904 5.49918,-53.1493 16.4975,-69.4767 10.9984,-16.3558 30.5006,-24.5195 58.5067,-24.5195 8.64561,0 17.9999,1.33228 27.9778,3.99683 10.0062,2.66455 19.0204,5.66926 27.014,9.01412l15.9873 -61.9933c-13.3228,-4.67714 -27.836,-8.84404 -43.4832,-12.5007 -15.6755,-3.68502 -31.1809,-5.49918 -46.5162,-5.49918 -25.9935,0 -47.8202,3.99683 -65.4799,11.9905 -17.6881,7.99365 -32.0029,18.992 -43.0013,32.9951 -10.9984,14.0031 -18.8503,31.0108 -23.4991,50.995 -4.67714,20.0125 -7.00153,42.0092 -7.00153,66.0185l0 268.978z"
         id="path181" /></glyph><glyph
       unicode="0"
       horiz-adv-x="497"
       id="glyph183"><path
         d="M248.994 -12.0188c-64.6862,0 -114.973,28.6864 -150.972,86.0026 -35.9998,57.3729 -54.028,139.69 -54.028,247.009 0,107.319 18.0282,189.013 54.028,245.025 35.9998,55.9556 86.2861,83.9617 150.972,83.9617 64.0059,0 114.009,-28.0061 150.009,-83.9617 35.9998,-56.0122 53.9713,-137.706 53.9713,-245.025 0,-107.319 -17.9715,-189.637 -53.9713,-247.009 -35.9998,-57.3162 -86.0026,-86.0026 -150.009,-86.0026zm0 66.0468c18.6519,0 35.4895,5.15902 50.5131,15.4771 14.9668,10.318 28.0061,26.3053 39.0045,48.0186 10.9984,21.6566 19.5022,49.3225 25.5117,82.9979 5.95272,33.6187 8.95742,73.8137 8.95742,120.472 0,46.658 -3.00471,86.6829 -8.95742,120.018 -6.00941,33.3352 -14.5133,60.491 -25.5117,81.4672 -10.9984,21.0329 -24.0376,36.51 -39.0045,46.5446 -15.0235,9.97789 -31.8612,14.9668 -50.5131,14.9668 -18.6519,0 -35.6596,-4.98894 -50.9666,-14.9668 -15.3637,-10.0346 -28.5164,-25.5117 -39.5147,-46.5446 -10.9984,-20.9762 -19.5022,-48.132 -25.5117,-81.4672 -6.00941,-33.3352 -9.01412,-73.3602 -9.01412,-120.018 0,-93.3159 11.5086,-161.177 34.5258,-203.47 22.9605,-42.3493 53.1776,-63.4957 90.4813,-63.4957z"
         id="path185" /></glyph><glyph
       unicode="-"
       horiz-adv-x="310"
       id="glyph187"><path
         d="M40.9964 282.014l229.998 0 0 -63.0005 -229.998 0 0 63.0005z"
         id="path189" /></glyph><glyph
       unicode="O"
       horiz-adv-x="658"
       id="glyph191"><path
         d="M329.993 -12.0067c-41.325,0 -79.1674,7.99773 -113.487,24.0134 -34.3396,15.9955 -64.0021,38.8346 -89.0077,68.497 -25.0056,29.6625 -44.3216,65.6624 -57.9886,108 -13.667,42.3374 -20.5106,89.8378 -20.5106,142.501 0,52.6635 6.84363,99.8198 20.5106,141.489 13.667,41.6692 32.9831,77.001 57.9886,106.016 25.0056,28.9943 54.668,51.1652 89.0077,66.4925 34.3194,15.3273 72.1618,23.0011 113.487,23.0011 40.6771,0 78.1753,-7.83575 112.515,-23.5073 34.3194,-15.6715 64.0021,-38.0044 88.9874,-66.9987 25.0056,-28.9943 44.3419,-64.3261 58.0089,-105.995 13.667,-41.6692 20.4904,-88.5015 20.4904,-140.497 0,-52.6635 -6.82338,-100.164 -20.4904,-142.501 -13.667,-42.3374 -33.0033,-78.3373 -58.0089,-108 -24.9853,-29.6625 -54.668,-52.5016 -88.9874,-68.497 -34.3396,-16.0157 -71.8379,-24.0134 -112.515,-24.0134zm0 73.0122c29.3385,0 55.8424,6.33744 79.5116,18.9921 23.6692,12.6749 43.9977,30.8368 61.0055,54.5061 16.9876,23.6692 30.1484,51.9954 39.4825,84.9987 9.33406,33.0033 14.0112,70.1573 14.0112,111.503 0,40.6568 -4.67715,77.3249 -14.0112,110.004 -9.33406,32.6591 -22.4949,60.3171 -39.4825,82.9942 -17.0078,22.6569 -37.3362,40.1709 -61.0055,52.5016 -23.6692,12.3307 -50.1731,18.4859 -79.5116,18.4859 -29.3183,0 -55.9841,-6.15522 -79.9976,-18.4859 -23.9932,-12.3307 -44.5038,-29.8447 -61.4914,-52.5016 -17.0078,-22.6771 -30.1687,-50.3351 -39.5027,-82.9942 -9.33406,-32.6793 -13.991,-69.3474 -13.991,-110.004 0,-41.3452 4.65691,-78.4993 13.991,-111.503 9.33406,-33.0033 22.4949,-61.3294 39.5027,-84.9987 16.9876,-23.6692 37.4982,-41.8312 61.4914,-54.5061 24.0134,-12.6546 50.6793,-18.9921 79.9976,-18.9921z"
         id="path193" /></glyph><glyph
       unicode="L"
       horiz-adv-x="480"
       id="glyph195"><path
         d="M87.0032 655.996l84.0066 0 0 -584.989 285.995 0 0 -71.0077 -370.001 0 0 655.996z"
         id="path197" /></glyph><glyph
       unicode="n"
       horiz-adv-x="546"
       id="glyph199"><path
         d="M82.0145 485.992l67.9832 0 6.99202 -70.0146 3.02357 0c23.3382,23.3382 47.8103,42.8497 73.4634,58.5345 25.7004,15.6375 55.5109,23.4799 89.5261,23.4799 51.3535,0 88.8175,-16.0155 112.486,-47.9992 23.6689,-31.9837 35.527,-79.3216 35.527,-142.014l0 -307.979 -82.0145 0 0 297.019c0,45.9678 -7.32272,79.1326 -22.0154,99.4945 -14.6454,20.3146 -37.9837,30.472 -69.9674,30.472 -25.3697,0 -47.6685,-6.33061 -67.0383,-18.9918 -19.3225,-12.6612 -41.2907,-31.3223 -65.999,-55.9834l0 -352.01 -81.9672 0 0 485.992z"
         id="path201" /></glyph><glyph
       unicode="]"
       horiz-adv-x="303"
       id="glyph203"><path
         d="M147.004 -104.995l0 765.009 -115.993 0 0 47.9619 178.015 0 0 -859.969 -178.015 0 0 46.9981 115.993 0z"
         id="path205" /></glyph><glyph
       unicode="Z"
       horiz-adv-x="534"
       id="glyph207"><path
         d="M41.9932 49.9909l346.008 536.01 -315.009 0 0 69.9953 418.008 0 0 -48.9988 -346.008 -535.99 349.005 0 0 -71.0077 -452.003 0 0 49.9909z"
         id="path209" /></glyph><glyph
       unicode="I"
       horiz-adv-x="257"
       id="glyph211"><path
         d="M87.0223 656.021l83.9987 0 0 -656.021 -83.9987 0 0 656.021z"
         id="path213" /></glyph><glyph
       unicode="k"
       horiz-adv-x="495"
       id="glyph215"><path
         d="M82.0058 712.002l80.9853 0 0 -482 3.00471 0 207.013 255.995 90.9916 0 -162.991 -194.994 184.988 -291.003 -89.9994 0 -141.987 233.999 -91.0199 -105.987 0 -128.012 -80.9853 0 0 712.002z"
         id="path217" /></glyph><glyph
       unicode="8"
       horiz-adv-x="497"
       id="glyph219"><path
         d="M114.973 170.985c0,-17.9715 3.51494,-34.299 10.5448,-48.9824 6.97318,-14.6834 16.6676,-27.4959 28.9699,-38.4942 12.359,-10.9984 26.8723,-19.5022 43.5399,-25.5117 16.6676,-6.00941 34.6392,-9.01412 53.9713,-9.01412 37.3604,0 67.5208,10.3747 90.4813,31.0108 23.0172,20.6928 34.5258,47.6784 34.5258,81.0137 0,20.6361 -4.64879,38.3242 -14.0031,53.0075 -9.35427,14.6267 -21.9967,27.4959 -37.984,38.4942 -16.044,10.9984 -34.5258,20.9762 -55.502,29.9904 -21.0329,9.01412 -42.8596,18.1416 -65.5366,27.4959 -25.2849,-17.3479 -46.4879,-37.4738 -63.4957,-60.491 -17.0078,-23.0172 -25.5117,-49.1524 -25.5117,-78.5192zm180.056 176.994c21.3164,19.3322 37.8139,39.6848 49.4926,61.0012 11.622,21.3731 17.4613,43.71 17.4613,67.0106 0,32.0313 -9.63773,58.8469 -28.9699,80.5034 -19.3322,21.6566 -46.658,32.4848 -82.0341,32.4848 -29.9904,0 -54.6516,-9.29758 -73.9838,-28.0061 -19.3322,-18.6519 -28.9699,-43.6533 -28.9699,-74.9476 0,-19.3322 3.96848,-35.8864 11.9621,-49.5493 7.99365,-13.6629 18.8219,-25.7951 32.5415,-36.4533 13.6629,-10.7149 29.3101,-20.1826 46.9981,-28.5164 17.6314,-8.33381 36.1132,-16.1574 55.502,-23.5274zm-254.039 -184.988c0,20.6928 3.51494,39.8549 10.4881,57.4863 7.02988,17.6881 16.044,33.6754 27.0423,48.0186 10.9984,14.3432 23.6408,26.9857 37.984,37.984 14.3432,10.9984 29.14,20.5227 44.5037,28.5164l0 4.02517c-23.3573,16.6676 -43.9934,36.7935 -62.0217,60.491 -17.9715,23.6408 -26.9857,52.4973 -26.9857,86.5128 0,24.6613 4.64879,46.9981 14.0031,66.9539 9.35427,20.0125 21.9967,37.1903 37.984,51.5335 15.9873,14.3432 35.036,25.5117 57.0327,33.5053 21.9967,7.99365 45.9777,11.9621 71.9995,11.9621 28.0061,0 53.0075,-4.13856 75.0043,-12.4724 21.9967,-8.33381 40.8186,-20.0125 56.4658,-35.036 15.7038,-14.9668 27.666,-32.9951 35.9998,-53.9713 8.33381,-20.9762 12.5291,-43.8233 12.5291,-68.4846 0,-16.6676 -2.83463,-32.6549 -8.50388,-48.0186 -5.66926,-15.307 -12.6991,-29.6502 -21.0329,-42.973 -8.33381,-13.3794 -17.6314,-25.3416 -28.0061,-35.9998 -10.318,-10.7149 -20.466,-19.6723 -30.5006,-27.0423l0 -3.96848c14.0031,-7.99365 27.666,-17.1778 41.0454,-27.4959 13.3228,-10.3747 25.1715,-21.9967 35.4895,-35.036 10.318,-12.9826 18.6519,-27.836 25.0014,-44.5037 6.34957,-16.6676 9.46766,-35.6596 9.46766,-56.976 0,-23.981 -4.98894,-46.3178 -14.9668,-67.0106 -10.0346,-20.6361 -24.0376,-38.6643 -42.0092,-53.9713 -18.0282,-15.3637 -39.6848,-27.3258 -65.0264,-35.9998 -25.2849,-8.67396 -53.291,-13.0393 -83.9617,-13.0393 -29.9904,0 -57.8264,4.36533 -83.5081,13.0393 -25.6817,8.67396 -47.6784,20.8062 -65.9901,36.4533 -18.3684,15.7038 -32.825,34.1856 -43.5399,55.502 -10.6582,21.3731 -15.9873,44.6737 -15.9873,70.0153z"
         id="path221" /></glyph><glyph
       unicode="W"
       horiz-adv-x="781"
       id="glyph223"><path
         d="M20.0045 655.996l85.9908 0 69.0032 -357.003c6.6614,-35.9999 13.1608,-71.3317 19.4983,-105.995 6.33744,-34.6636 12.8369,-69.9953 19.4983,-105.995l4.00899 0c7.32957,35.9999 14.8211,71.4937 22.4949,106.501 7.67377,34.9875 15.5095,70.1573 23.5073,105.489l90.9919 357.003 76.0088 0 90.9919 -357.003c7.32957,-34.6636 15.0033,-69.6511 23.0011,-105.003 7.99773,-35.3318 15.9955,-70.9875 23.9932,-106.987l4.00899 0c6.6614,35.9999 12.9988,71.4937 18.9921,106.501 6.01348,34.9875 12.0067,70.1573 18,105.489l69.0032 357.003 81.0099 0 -136.002 -655.996 -101.014 0 -98.9897 395.007c-5.32507,25.3295 -10.6704,50.1529 -15.9955,74.4903 -5.34532,24.3374 -10.3464,49.1607 -15.0033,74.5105l-4.00899 0c-5.32507,-25.3498 -10.8324,-50.1731 -16.5017,-74.5105 -5.64903,-24.3374 -11.1563,-49.1607 -16.5017,-74.4903l-97.9975 -395.007 -98.9897 0 -138.999 655.996z"
         id="path225" /></glyph><glyph
       unicode="y"
       horiz-adv-x="467"
       id="glyph227"><path
         d="M48.9988 -133.997c5.32507,-1.33633 11.3386,-2.83464 18,-4.49493 6.6614,-1.68054 12.9988,-2.51068 18.9921,-2.51068 28.0022,0 50.8413,9.84025 68.5173,29.5005 17.6558,19.6602 31.4847,44.5038 41.487,74.5105l11.0146 35.9999 -195.003 486.991 84.9987 0 98.9897 -269.007c7.32957,-21.3205 15.1653,-43.8154 23.5073,-67.4847 8.32169,-23.6692 16.1574,-46.8323 23.5073,-69.5094l3.98874 0c7.32957,22.0089 14.3352,45.01 20.9966,69.0032 6.68165,23.9932 13.3431,46.6703 20.0045,67.9908l87.0032 269.007 79.9976 0 -182.996 -526.008c-8.6659,-23.9932 -18.3442,-46.3261 -28.9943,-66.9987 -10.6704,-20.6524 -23.3453,-38.4904 -38.0044,-53.4937 -14.6794,-15.0033 -31.343,-26.8278 -50.0111,-35.4937 -18.6681,-8.6659 -40.3329,-12.9988 -64.9942,-12.9988 -11.3386,0 -21.6647,0.830144 -30.9988,2.49043 -9.33406,1.66029 -18,4.17097 -25.9977,7.51179l15.9955 64.9942z"
         id="path229" /></glyph><glyph
       unicode="h"
       horiz-adv-x="544"
       id="glyph231"><path
         d="M82.0021 712.001l82.0021 0 0 -193.991 -2.99662 -100.002c23.325,21.9887 47.6624,40.8188 72.992,56.4903 25.3295,15.6715 54.992,23.5073 89.0077,23.5073 51.3272,0 88.8254,-16.0157 112.495,-48.0066 23.6692,-31.9909 35.4937,-79.3294 35.4937,-141.995l0 -308.004 -82.0021 0 0 297.009c0,45.9819 -7.32957,79.1472 -21.9887,99.4958 -14.6794,20.3284 -38.0044,30.4926 -69.9953,30.4926 -25.3498,0 -47.6827,-6.33744 -67.019,-18.9921 -19.316,-12.6749 -41.325,-31.343 -65.9864,-56.0044l0 -352.001 -82.0021 0 0 712.001z"
         id="path233" /></glyph><glyph
       unicode="F"
       horiz-adv-x="488"
       id="glyph235"><path
         d="M87.0032 655.996l378.991 0 0 -69.9953 -294.985 0 0 -221.993 249.995 0 0 -70.0156 -249.995 0 0 -293.993 -84.0066 0 0 655.996z"
         id="path237" /></glyph><glyph
       unicode="5"
       horiz-adv-x="497"
       id="glyph239"><path
         d="M65.0079 129.008c18.6457,-19.3386 40.8189,-36.3465 66.5197,-51.0236 25.6378,-14.6772 57.1339,-21.9843 94.4882,-21.9843 19.3386,0 37.4803,3.52756 54.4882,10.5197 17.0079,6.99213 31.811,16.8189 44.4724,29.4803 12.6614,12.6614 22.6772,28.0315 30.0472,45.9843 7.30709,18.0157 10.9606,38.0472 10.9606,60.0315 0,43.9685 -12.3465,78.2992 -36.9764,102.992 -24.6929,24.6299 -57.7008,36.9764 -99.0236,36.9764 -21.9843,0 -40.8189,-3.33858 -56.5039,-9.95276 -15.622,-6.67717 -33.1339,-16.378 -52.4724,-29.0394l-44.0315 28.0315 21.0394 306.961 318.992 0 0 -70.9921 -246.992 0 -17.0079 -188.976c15.3071,8 30.6772,14.2992 45.9843,18.9606 15.3701,4.66142 32.6929,7.05512 52.0315,7.05512 27.3386,0 52.9764,-4.0315 76.9764,-12.0315 24,-8 44.9764,-20.1575 62.9921,-36.4724 18.0157,-16.378 32.189,-37.0394 42.5197,-62.0472 10.3307,-25.0079 15.4961,-54.8031 15.4961,-89.4488 0,-34.7087 -5.98425,-65.3858 -18.0157,-92.0315 -11.9685,-26.6457 -27.9685,-49.1969 -48,-67.5276 -19.9685,-18.3307 -42.8346,-32.315 -68.4724,-41.9528 -25.7008,-9.70079 -52.5354,-14.5512 -80.5039,-14.5512 -25.3228,0 -48.5039,2.51969 -69.5433,7.55906 -20.9764,4.97638 -40,11.4646 -56.9449,19.4646 -17.0079,8 -32.378,17.1969 -46.0472,27.5276 -13.6693,10.3307 -25.8268,21.1654 -36.4724,32.5039l40 53.9843z"
         id="path241" /></glyph><glyph
       unicode="v"
       horiz-adv-x="467"
       id="glyph243"><path
         d="M11.9905 485.997l85.0105 0 92.012 -276.008c7.31334,-23.981 14.8251,-47.9902 22.4786,-71.9995 7.68184,-23.981 15.1653,-47.6501 22.5069,-70.9791l3.99683 0c7.34169,23.329 14.6834,46.9981 21.9967,70.9791 7.34169,24.0093 14.6834,48.0186 21.9967,71.9995l92.012 276.008 80.9853 0 -171.977 -485.997 -96.0088 0 -175.01 485.997z"
         id="path245" /></glyph><glyph
       unicode="T"
       horiz-adv-x="531"
       id="glyph247"><path
         d="M223.992 586.003l-198.991 0 0 69.987 481.008 0 0 -69.987 -199.019 0 0 -586.003 -82.9979 0 0 586.003z"
         id="path249" /></glyph><glyph
       unicode="C"
       horiz-adv-x="565"
       id="glyph251"><path
         d="M49.0107 327.995c0,52.6674 7.31334,100.006 21.9967,142.015 14.655,41.9808 35.1494,77.6688 61.4831,106.979 26.3337,29.3384 57.3445,51.8453 93.0041,67.5208 35.6596,15.6471 74.494,23.4991 116.503,23.4991 39.3446,0 74.1822,-8.16373 104.513,-24.5195 30.3305,-16.3275 55.1619,-35.1494 74.494,-56.4941l-46.9981 -53.0075c-17.3479,18.6802 -36.6801,33.5053 -57.9965,44.5037 -21.3447,10.9984 -45.6659,16.4975 -73.02,16.4975 -31.3226,0 -59.8106,-6.15114 -85.4924,-18.4818 -25.6534,-12.3306 -47.5084,-30.0187 -65.5082,-53.0075 -17.9999,-22.9888 -32.0029,-50.8249 -41.9808,-83.5081 -10.0062,-32.6549 -14.9952,-69.335 -14.9952,-109.984 0,-41.3289 4.81887,-78.5192 14.4849,-111.514 9.66608,-32.9951 23.329,-61.1713 40.9887,-84.5003 17.6881,-23.329 39.0045,-41.3289 64.0059,-53.9997 25.0014,-12.6708 53.1776,-18.992 84.5003,-18.992 31.351,0 58.8469,6.32122 82.516,18.992 23.6691,12.6708 46.1477,30.6707 67.4925,53.9997l46.9981 -50.995c-25.3416,-29.9904 -54.3398,-53.3193 -86.9947,-69.987 -32.6833,-16.6676 -70.0153,-25.0014 -111.996,-25.0014 -41.3289,0 -79.5113,7.6535 -114.519,22.9888 -34.9793,15.3353 -65.3098,37.5021 -90.9916,66.5004 -25.6534,28.9982 -45.8359,64.6579 -60.491,107.007 -14.6834,42.321 -21.9967,90.1695 -21.9967,143.489z"
         id="path253" /></glyph><glyph
       unicode="e"
       horiz-adv-x="496"
       id="glyph255"><path
         d="M45.9843 242.016c0,40 6.17323,75.8425 18.5197,107.465 12.3465,31.685 28.6614,58.5197 49.0079,80.5039 20.3465,22.0472 43.4646,38.8661 69.4803,50.5197 26.0157,11.6535 53.0394,17.5118 81.0079,17.5118 30.6772,0 58.1417,-5.35433 82.5197,-16 24.315,-10.7087 44.6614,-26.0157 60.9764,-45.9843 16.315,-20.0315 28.8504,-44.0315 37.4803,-72 8.69291,-28.0315 13.0394,-59.3386 13.0394,-94.0472 0,-17.9528 -1.00787,-33.0079 -3.02362,-44.9764l-328 0c3.33858,-52.6614 19.5276,-94.3622 48.5039,-124.976 28.9764,-30.6772 66.8346,-46.0472 113.512,-46.0472 23.3071,0 44.8504,3.52756 64.5039,10.5197 19.6535,6.99213 38.4882,16.189 56.5039,27.5276l28.9764 -54.0472c-21.3543,-13.2913 -44.9764,-25.0079 -70.9921,-34.9606 -26.0157,-10.0157 -55.685,-15.0551 -89.0079,-15.0551 -32.6299,0 -63.1811,5.85827 -91.4646,17.5118 -28.3465,11.7165 -53.0394,28.3465 -74.0157,50.0157 -21.0394,21.6693 -37.4803,48.189 -49.5118,79.4961 -11.9685,31.3701 -18.0157,67.0236 -18.0157,107.024zm340.031 36.9764c0,50.0157 -10.5197,88.189 -31.4961,114.52 -21.0394,26.3307 -50.5197,39.4961 -88.5039,39.4961 -17.3228,0 -33.8268,-3.52756 -49.5118,-10.5197 -15.685,-6.99213 -29.8583,-17.0079 -42.5197,-29.9843 -12.6614,-12.9764 -23.1811,-28.9764 -31.4961,-48 -8.31496,-19.0236 -13.7953,-40.8189 -16.5039,-65.5118l260.031 0z"
         id="path257" /></glyph><glyph
       unicode="2"
       horiz-adv-x="497"
       id="glyph259"><path
         d="M40.0249 48.9824c47.9619,48.0186 90.6514,91.3317 127.955,129.996 37.3604,38.6643 68.7114,74.494 93.9963,107.546 25.3416,32.9951 44.6737,63.3256 57.9965,90.9916 13.3794,27.666 20.0125,54.4815 20.0125,80.5034 0,36.6234 -9.97789,66.6704 -29.9904,89.9711 -20.0125,23.3573 -50.343,35.036 -90.9916,35.036 -26.6455,0 -51.3635,-7.54011 -73.9838,-22.5069 -22.677,-15.0235 -43.3698,-33.1651 -62.0217,-54.5382l-46.9981 46.9981c26.6455,29.3667 54.9918,52.8375 84.9821,70.5255 29.9904,17.6881 65.9901,26.4754 107.999,26.4754 59.3571,0 106.015,-17.1212 140.031,-51.4768 34.0155,-34.3557 50.9666,-79.8231 50.9666,-136.516 0,-29.9904 -6.46295,-60.1508 -19.5022,-90.4813 -12.9826,-30.3305 -30.9541,-61.6815 -53.9713,-93.9963 -23.0172,-32.3714 -50.343,-65.9901 -81.9774,-101.026 -31.6911,-34.9793 -66.5004,-72.1696 -104.541,-111.458 17.3479,1.30393 35.3195,2.66455 54.028,3.96848 18.6519,1.36062 36.3399,1.98424 53.0075,1.98424l184.988 0 0 -70.9791 -411.985 0 0 48.9824z"
         id="path261" /></glyph><glyph
       unicode="/"
       horiz-adv-x="349"
       id="glyph263"><path
         d="M277 709.989l60.0091 0 -266.001 -869.976 -61.0012 0 266.994 869.976z"
         id="path265" /></glyph><glyph
       unicode="b"
       horiz-adv-x="554"
       id="glyph267"><path
         d="M82.0058 712.002l82.0058 0 0 -194.002 -2.01259 -87.9868c21.9967,19.3322 46.006,35.4895 71.9995,48.5005 25.9935,12.9826 52.6674,19.4739 79.9932,19.4739 31.351,0 59.017,-5.81099 82.9979,-17.4897 24.0093,-11.6503 44.1635,-28.3179 60.5193,-50.0028 16.3275,-21.6566 28.6581,-47.6501 36.9919,-78.009 8.33381,-30.3305 12.5007,-64.1476 12.5007,-101.48 0,-41.3289 -5.66926,-78.3491 -17.0078,-111.004 -11.3385,-32.6549 -26.6738,-60.3492 -46.006,-82.9979 -19.3322,-22.677 -41.6407,-39.8265 -66.9823,-51.5052 -25.3416,-11.6787 -52.0154,-17.4897 -79.9932,-17.4897 -22.677,0 -46.1761,5.15902 -70.5255,15.4771 -24.3211,10.3464 -47.1399,25.1715 -68.4846,44.5037l-3.00471 0 -7.00153 -47.9902 -65.9901 0 0 712.002zm82.0058 -604.002c21.3164,-18.6519 42.4911,-31.8329 63.4957,-39.4864 21.0046,-7.68184 39.4864,-11.5086 55.502,-11.5086 19.9841,0 38.4942,4.50706 55.502,13.4928 16.9794,9.01412 31.6628,21.6566 43.9934,38.0124 12.3306,16.3275 21.9967,36.4817 28.9982,60.491 7.00153,24.0093 10.4881,50.995 10.4881,81.0137 0,26.6455 -2.32439,50.995 -7.00153,72.9917 -4.64879,21.9967 -12.1606,40.8186 -22.4786,56.4941 -10.3464,15.6755 -23.6691,27.836 -40.0249,36.51 -16.3275,8.64561 -35.8297,12.9826 -58.4784,12.9826 -39.3446,0 -82.6861,-21.9967 -129.996,-65.9901l0 -255.003z"
         id="path269" /></glyph><glyph
       unicode="s"
       horiz-adv-x="419"
       id="glyph271"><path
         d="M68.9764 109.984c21.3543,-17.3228 43.2126,-31.3071 65.5118,-41.9528 22.3622,-10.7087 48.189,-16 77.5433,-16 32,0 56,7.30709 72,21.9843 16,14.6772 24,32.6299 24,53.9843 0,12.6614 -3.33858,23.685 -10.0157,33.0079 -6.67717,9.32283 -15.1811,17.5118 -25.5118,24.5039 -10.3307,6.99213 -22.1732,13.1654 -35.5276,18.5197 -13.2913,5.29134 -26.6457,10.6457 -40,16 -17.3228,5.98425 -34.6457,12.7874 -51.9685,20.4724 -17.3228,7.68504 -32.8189,17.0079 -46.4882,27.9685 -13.6693,11.0236 -24.8819,23.874 -33.5118,38.5512 -8.69291,14.6142 -12.9764,32.315 -12.9764,52.9764 0,19.3386 3.77953,37.4803 11.4646,54.4882 7.68504,17.0079 18.6457,31.685 33.0079,44.0315 14.2992,12.2835 31.811,21.9843 52.4724,28.9764 20.6614,6.99213 44.0315,10.5197 70.0472,10.5197 30.6142,0 58.8346,-5.35433 84.4724,-16 25.7008,-10.7087 47.811,-23.685 66.5197,-38.9921l-38.9921 -52.0315c-16.6929,12.6614 -34.0157,22.9921 -52.0315,30.9921 -18.0157,8 -37.6693,12.0315 -58.9606,12.0315 -30.6772,0 -53.2283,-6.99213 -67.5276,-21.0394 -14.3622,-13.9843 -21.4803,-30.2992 -21.4803,-48.9449 0,-11.3386 2.96063,-21.0394 9.00787,-29.0394 5.98425,-8 13.9843,-15.3071 24,-21.9843 9.95276,-6.67717 21.4803,-12.5354 34.4567,-17.5118 13.0394,-4.97638 26.5197,-10.1417 40.5039,-15.4961 17.3228,-6.67717 34.8346,-13.6693 52.5354,-20.9764 17.6378,-7.37008 33.4488,-16.5039 47.4961,-27.5276 13.9843,-11.0236 25.4488,-24.5039 34.4567,-40.5039 9.00787,-16 13.5433,-35.3386 13.5433,-58.0157 0,-19.9685 -3.84252,-38.6142 -11.5276,-56 -7.68504,-17.3228 -19.0236,-32.6299 -34.0157,-45.9843 -14.9921,-13.3543 -33.6378,-23.811 -56,-31.4961 -22.2992,-7.68504 -47.811,-11.5276 -76.4724,-11.5276 -34.6457,0 -67.6535,6.3622 -99.0236,19.0236 -31.3071,12.6614 -58.6457,28.6614 -81.9528,48l40.9449 54.9921z"
         id="path273" /></glyph><glyph
       unicode="N"
       horiz-adv-x="641"
       id="glyph275"><path
         d="M86.9947 655.99l86.0026 0 237.995 -411.985 71.0074 -136.005 3.99683 0c-1.98424,33.3352 -4.33698,67.8326 -7.00153,103.492 -2.66455,35.688 -3.99683,70.8373 -3.99683,105.505l0 338.993 79.0011 0 0 -655.99 -86.0026 0 -237.003 413.005 -71.0074 134.985 -3.99683 0c2.01259,-33.3352 4.1669,-67.1523 6.51964,-101.48 2.32439,-34.3557 3.48659,-68.8531 3.48659,-103.521l0 -342.99 -79.0011 0 0 655.99z"
         id="path277" /></glyph><glyph
       unicode=","
       horiz-adv-x="249"
       id="glyph279"><path
         d="M46.9846 -122.032c27.9923,12.6851 50.0319,29.3388 66.0478,50.0319 15.945,20.6931 23.9529,44.646 23.9529,72.0006 -1.98427,-0.6378 -5.315,-0.992134 -9.9922,-0.992134 -16.0159,0 -29.8349,4.81894 -41.5279,14.4568 -11.6221,9.70874 -17.4332,23.8821 -17.4332,42.52 0,18.0001 5.9528,32.1735 18.0001,42.52 11.9765,10.3465 26.2915,15.5198 42.9452,15.5198 21.3309,0 38.1972,-8.7166 50.528,-26.0081 12.3308,-17.3623 18.4962,-41.0318 18.4962,-71.0084 0,-43.3704 -11.693,-81.0006 -35.0081,-113.032 -23.3151,-31.9609 -55.3469,-56.6225 -96.0244,-73.9848l-19.9844 47.9768z"
         id="path281" /></glyph><glyph
       unicode="p"
       horiz-adv-x="555"
       id="glyph283"><path
         d="M164.031 -41.0079l0 -163.969 -82.0157 0 0 690.961 67.9685 0 6.99213 -56 3.02362 0c21.9843,18.7087 46.1732,34.7087 72.5039,48 26.3307,13.3543 53.8583,20.0315 82.5197,20.0315 31.3071,0 58.9606,-5.85827 82.9606,-17.5118 24,-11.6535 44.0315,-28.3465 60.0315,-50.0157 16,-21.6693 28.1575,-47.685 36.4724,-77.9843 8.31496,-30.3622 12.5354,-64.5039 12.5354,-102.488 0,-41.3228 -5.66929,-78.1732 -17.0079,-110.488 -11.3386,-32.378 -26.7087,-59.8425 -45.9843,-82.5197 -19.3386,-22.6772 -41.7008,-39.811 -67.0236,-51.5276 -25.3228,-11.6535 -52.0315,-17.5118 -80,-17.5118 -22.6772,0 -45.1654,5.03937 -67.5276,15.0551 -22.2992,9.95276 -44.7874,23.622 -67.4646,41.0079l2.01575 -85.0394zm0 149.039c21.9843,-18.7087 43.2756,-31.874 64,-39.5591 20.6614,-7.62205 38.9921,-11.4646 54.9921,-11.4646 19.9685,0 38.4882,4.47244 55.4961,13.4803 17.0079,9.00787 31.622,21.6693 43.9685,37.9843 12.3465,16.378 21.9843,36.5354 29.0394,60.5354 6.99213,24 10.4567,51.0236 10.4567,81.0079 0,26.6457 -2.33071,50.9606 -6.99213,73.0079 -4.66142,21.9843 -12.1575,40.8189 -22.4882,56.5039 -10.3307,15.622 -23.685,27.7795 -40,36.4724 -16.315,8.69291 -35.8425,12.9764 -58.5197,12.9764 -20.6614,0 -41.5118,-5.66929 -62.4882,-16.9449 -20.9764,-11.3386 -43.4646,-27.7165 -67.4646,-49.0079l0 -254.992z"
         id="path285" /></glyph><glyph
       unicode=":"
       horiz-adv-x="248"
       id="glyph287"><path
         d="M64.9848 410.991c0,19.3466 5.8465,34.831 17.5041,46.524 11.693,11.6576 25.8309,17.4686 42.52,17.4686 15.9804,0 29.8349,-5.81107 41.4925,-17.4686 11.6576,-11.693 17.5041,-27.1774 17.5041,-46.524 0,-18.0001 -5.8465,-32.8113 -17.5041,-44.5043 -11.6576,-11.6576 -25.512,-17.5041 -41.4925,-17.5041 -16.6891,0 -30.827,5.8465 -42.52,17.5041 -11.6576,11.693 -17.5041,26.5041 -17.5041,44.5043zm0 -360.995c0,19.3466 5.8465,34.831 17.5041,46.4886 11.693,11.693 25.8309,17.5041 42.52,17.5041 15.9804,0 29.8349,-5.81107 41.4925,-17.5041 11.6576,-11.6576 17.5041,-27.1419 17.5041,-46.4886 0,-18.0001 -5.8465,-32.8467 -17.5041,-44.5043 -11.6576,-11.6576 -25.512,-17.5041 -41.4925,-17.5041 -16.6891,0 -30.827,5.8465 -42.52,17.5041 -11.6576,11.6576 -17.5041,26.5041 -17.5041,44.5043z"
         id="path289" /></glyph><glyph
       unicode=")"
       horiz-adv-x="302"
       id="glyph291"><path
         d="M38.0124 -151.993c38.6643,64.0059 67.4925,132.491 86.4845,205.482 18.992,73.02 28.5164,147.854 28.5164,224.503 0,76.6767 -9.52435,151.511 -28.5164,224.503 -18.992,72.9917 -47.8202,141.505 -86.4845,205.511l50.995 23.981c41.3289,-67.3224 73.672,-137.82 97.001,-211.492 23.329,-73.672 34.9793,-154.487 34.9793,-242.502 0,-87.9868 -11.6503,-169.001 -34.9793,-242.984 -23.329,-74.0121 -55.6721,-144.339 -97.001,-211.01l-50.995 24.0093z"
         id="path293" /></glyph><glyph
       unicode="K"
       horiz-adv-x="574"
       id="glyph295"><path
         d="M86.9947 655.99l84.0184 0 0 -328.987 1.98424 0 273.003 328.987 94.9884 0 -205.992 -249.986 237.003 -406.004 -93.0041 0 -195.986 341.006 -111.996 -133.001 0 -208.005 -84.0184 0 0 655.99z"
         id="path297" /></glyph><glyph
       unicode="m"
       horiz-adv-x="828"
       id="glyph299"><path
         d="M82.0058 485.997l68.0027 0 7.00153 -69.987 2.97636 0c21.3447,23.329 44.5037,42.8312 69.5051,58.4784 25.0014,15.6755 52.1855,23.4991 81.4955,23.4991 37.3604,0 66.5004,-8.16373 87.505,-24.4912 21.0046,-16.3275 36.51,-39.1746 46.5162,-68.4846 25.3132,27.9778 50.8249,50.4847 76.4783,67.4925 25.6817,17.0078 53.5178,25.4833 83.5081,25.4833 50.0028,0 87.1648,-15.9873 111.514,-47.9902 24.3211,-32.0029 36.4817,-79.3412 36.4817,-141.987l0 -308.011 -81.9774 0 0 297.012c0,45.9777 -7.34169,79.1428 -22.0251,99.4954 -14.655,20.3243 -37.332,30.5006 -67.9744,30.5006 -36.6801,0 -77.357,-25.0014 -122.002,-75.0043l0 -352.004 -82.0058 0 0 297.012c0,45.9777 -7.34169,79.1428 -21.9967,99.4954 -14.6834,20.3243 -37.6722,30.5006 -68.9948,30.5006 -36.6801,0 -77.357,-25.0014 -122.002,-75.0043l0 -352.004 -82.0058 0 0 485.997z"
         id="path301" /></glyph><glyph
       unicode="Y"
       horiz-adv-x="470"
       id="glyph303"><path
         d="M193.991 254.004l-198 401.992 89.9998 0 84.0066 -185.001c10.6704,-23.9932 21.1788,-47.6624 31.505,-70.9875 10.3262,-23.3453 21.1586,-47.3385 32.4971,-71.9998l4.00899 0c11.3183,24.6614 22.4949,48.6546 33.4892,71.9998 10.9944,23.325 21.5028,46.9943 31.505,70.9875l84.9987 185.001 85.9908 0 -196.987 -401.992 0 -254.004 -83.0144 0 0 254.004z"
         id="path305" /></glyph><glyph
       unicode="H"
       horiz-adv-x="647"
       id="glyph307"><path
         d="M87.0032 655.996l84.0066 0 0 -275.001 304.987 0 0 275.001 82.9942 0 0 -655.996 -82.9942 0 0 308.996 -304.987 0 0 -308.996 -84.0066 0 0 655.996z"
         id="path309" /></glyph><glyph
       unicode="7"
       horiz-adv-x="497"
       id="glyph311"><path
         d="M176.994 0c2.66455,59.9807 7.99365,114.973 15.9873,164.975 7.99365,50.0028 19.1621,97.5112 33.5053,142.525 14.3432,45.0139 32.6549,88.4971 54.9918,130.506 22.3369,42.0092 49.2091,84.9821 80.5034,128.976l-317.989 0 0 71.0358 411.021 0 0 -51.0233c-38.0407,-48.0186 -68.8248,-93.9963 -92.5223,-137.99 -23.6408,-43.9934 -42.5194,-88.8372 -56.4658,-134.531 -14.0031,-45.6375 -24.2077,-93.9963 -30.5006,-144.963 -6.34957,-51.0233 -10.885,-107.489 -13.5495,-169.511l-84.9821 0z"
         id="path313" /></glyph><glyph
       unicode="V"
       horiz-adv-x="509"
       id="glyph315"><path
         d="M-2.00449 655.996l87.9953 0 106.016 -354.006c11.3183,-39.3205 21.6647,-75.6646 30.9988,-108.992 9.33406,-33.3273 20.0045,-69.3272 31.9909,-108l4.00899 0c5.99324,19.3363 11.6625,37.8424 16.9876,55.4982 5.34532,17.676 10.5084,35.1698 15.5095,52.5016 5.00111,17.3318 10.0022,35.0078 15.0033,53.0078 5.00111,18 10.1642,36.6681 15.4893,55.9841l105.003 354.006 84.9987 0 -208.002 -655.996 -96.9852 0 -209.014 655.996z"
         id="path317" /></glyph><glyph
       unicode="E"
       horiz-adv-x="521"
       id="glyph319"><path
         d="M86.9947 655.99l377.998 0 0 -69.987 -293.979 0 0 -205.992 247.973 0 0 -71.0074 -247.973 0 0 -237.995 303.985 0 0 -71.0074 -388.004 0 0 655.99z"
         id="path321" /></glyph><glyph
       unicode="g"
       horiz-adv-x="503"
       id="glyph323"><path
         d="M117.013 -82.0058c0,-25.9935 12.5007,-46.658 37.4738,-61.9933 25.0014,-15.3353 59.4988,-22.9888 103.521,-22.9888 23.329,0 44.5037,2.83463 63.4957,8.47554 18.992,5.66926 35.1494,13.0109 48.5005,22.0251 13.3228,8.98577 23.6691,19.4739 30.9825,31.4927 7.34169,11.9905 11.0267,24.3211 11.0267,36.9919 0,22.677 -8.33381,38.3242 -25.0014,46.9981 -16.6676,8.67396 -41.0171,13.0109 -73.02,13.0109l-83.99 0c-9.32593,0 -19.5022,0.481887 -30.5006,1.50235 -10.9984,0.99212 -21.8266,3.14644 -32.5132,6.4913 -17.3196,-12.6708 -29.9904,-25.9935 -37.984,-39.9966 -7.99365,-14.0031 -11.9905,-28.0061 -11.9905,-42.0092zm-71.9995 -10.9984c0,20.6644 6.32122,40.3368 18.992,59.017 12.6708,18.6519 29.9904,35.6596 51.9871,50.995l0 3.99683c-11.9905,7.34169 -22.1668,17.4897 -30.5006,30.5006 -8.33381,12.9826 -12.5007,29.1683 -12.5007,48.5005 0,20.6644 5.66926,38.6643 17.0078,53.9997 11.3385,15.3353 23.329,27.3258 35.9998,35.9998l0 3.99683c-15.9873,13.3228 -30.5006,31.1526 -43.5115,53.4894 -12.9826,22.3369 -19.4739,48.1887 -19.4739,77.4987 0,26.6738 4.81887,50.6831 14.4849,71.9995 9.66608,21.3447 22.8471,39.5147 39.5147,54.5099 16.6393,14.9952 36.1415,26.5038 58.4784,34.4974 22.3369,7.99365 45.8359,11.9905 70.4972,11.9905 13.3511,0 25.8518,-1.1622 37.5021,-3.48659 11.6787,-2.32439 22.1668,-5.15902 31.5211,-8.50388l169.001 0 0 -62.9854 -100.006 0c11.3385,-11.3385 20.8345,-25.6817 28.488,-43.0013 7.68184,-17.3479 11.5086,-36.3399 11.5086,-57.0044 0,-25.9935 -4.67714,-49.4926 -14.0031,-70.4972 -9.32593,-21.0046 -21.9967,-38.6643 -38.0124,-53.0075 -15.9873,-14.3432 -34.8092,-25.5117 -56.4941,-33.5053 -21.6566,-7.99365 -44.8155,-11.9905 -69.5051,-11.9905 -11.9905,0 -24.3211,1.50235 -36.9919,4.50706 -12.6708,2.97636 -24.6613,7.14326 -35.9998,12.5007 -8.67396,-7.34169 -15.9873,-15.5054 -21.9967,-24.5195 -6.00941,-8.98577 -9.01412,-20.1542 -9.01412,-33.5053 0,-15.3353 6.00941,-27.9778 17.9999,-37.984 12.0188,-10.0062 34.6675,-14.9952 68.0027,-14.9952l94.0246 0c56.6642,0 99.1553,-9.18419 127.473,-27.4959 28.3463,-18.34 42.5194,-47.8485 42.5194,-88.5254 0,-22.6487 -5.66926,-44.1635 -17.0078,-64.4878 -11.3385,-20.3243 -27.666,-38.1541 -49.0107,-53.4894 -21.3164,-15.3353 -47.1682,-27.5242 -77.4987,-36.51 -30.3305,-9.01412 -64.4878,-13.4928 -102.5,-13.4928 -29.9904,0 -57.3162,2.83463 -81.9774,8.50388 -24.6896,5.64091 -45.8359,14.1448 -63.524,25.4833 -17.6597,11.3385 -31.3226,25.0014 -40.9887,41.0171 -9.66608,15.9873 -14.4849,34.6675 -14.4849,55.9839zm200.975 302.001c14.0031,0 27.1841,2.66455 39.5147,7.99365 12.3306,5.3291 23.329,13.0109 32.9951,23.0172 9.66608,10.0062 17.1778,22.1668 22.5069,36.4817 5.3291,14.3432 7.99365,30.5006 7.99365,48.5005 0,35.9998 -10.0062,63.8358 -29.9904,83.5081 -20.0125,19.6723 -44.3336,29.5085 -73.02,29.5085 -28.6581,0 -52.9792,-9.83616 -72.9917,-29.5085 -19.9841,-19.6723 -29.9904,-47.5084 -29.9904,-83.5081 0,-17.9999 2.66455,-34.1573 7.99365,-48.5005 5.3291,-14.3149 12.8409,-26.4754 22.5069,-36.4817 9.66608,-10.0062 20.6644,-17.6881 32.9951,-23.0172 12.3306,-5.3291 25.4833,-7.99365 39.4864,-7.99365z"
         id="path325" /></glyph><glyph
       unicode="4"
       horiz-adv-x="497"
       id="glyph327"><path
         d="M303.985 242.021l0 184.988c0,17.3479 0.510233,37.8139 1.5307,61.5114 0.963773,23.6408 2.15432,44.1635 3.45825,61.4547l-3.96848 0c-7.99365,-15.307 -16.3275,-30.3305 -25.0014,-44.9572 -8.67396,-14.6834 -17.6881,-29.7069 -26.9857,-45.0139l-149.045 -217.983 200.011 0zm165.032 -66.0468l-87.0231 0 0 -175.974 -78.009 0 0 175.974 -286.978 0 0 54.028 272.975 408.016 92.012 0 0 -395.998 87.0231 0 0 -66.0468z"
         id="path329" /></glyph><glyph
       unicode="B"
       horiz-adv-x="583"
       id="glyph331"><path
         d="M87.0032 655.996l195.003 0c33.3273,0 63.8199,-2.99662 91.4981,-8.98986 27.658,-6.01348 51.4892,-15.3475 71.4937,-28.0022 20.0045,-12.6749 35.4937,-29.1765 46.5083,-49.505 10.9944,-20.3284 16.5017,-44.8278 16.5017,-73.4981 0,-32.6591 -9.33406,-62.1596 -28.0022,-88.5015 -18.6681,-26.3419 -47.6624,-44.5038 -87.0032,-54.5061l0 -3.98874c48.0066,-7.32957 85.3226,-24.0134 111.988,-50.0111 26.6659,-25.9977 40.0089,-61.6534 40.0089,-106.987 0,-32.0112 -5.99324,-60.0134 -18,-84.0066 -12.0067,-23.9932 -28.9943,-43.9977 -51.0033,-59.9931 -21.9887,-16.0157 -48.1686,-28.0022 -78.4993,-35.9999 -30.3306,-7.99773 -63.8401,-12.0067 -100.488,-12.0067l-210.006 0 0 655.996zm180.992 -280.002c56.0044,0 96.3372,9.67827 120.999,29.0146 24.6816,19.316 37.0123,47.3182 37.0123,83.9863 0,35.9999 -12.9988,61.8356 -38.9965,77.5071 -26.0179,15.6715 -64.3463,23.5073 -115.005,23.5073l-100.994 0 0 -214.015 96.9852 0zm17.0078 -309.988c56.6725,0 100.488,10.4882 131.507,31.4847 30.9988,21.0168 46.4881,53.8379 46.4881,98.5037 0,40.6771 -15.1653,70.5015 -45.496,89.5139 -30.3306,18.9921 -74.5105,28.4881 -132.499,28.4881l-113.993 0 0 -247.99 113.993 0z"
         id="path333" /></glyph><glyph
       unicode=" "
       horiz-adv-x="201"
       id="glyph335" /><glyph
       unicode="u"
       horiz-adv-x="549"
       id="glyph337"><path
         d="M79.9932 485.997l82.9979 0 0 -296.984c0,-46.006 7.17161,-79.1712 21.5148,-99.5238 14.3149,-20.3243 37.5021,-30.5006 69.5051,-30.5006 25.3132,0 47.48,6.51964 66.5004,19.5022 18.992,13.0109 40.1667,33.8455 63.4957,62.5035l0 345.003 82.9979 0 0 -485.997 -68.0027 0 -7.00153 75.9964 -3.00471 0c-22.6487,-26.6738 -46.658,-47.9902 -71.9995,-64.0059 -25.3416,-15.9873 -54.6516,-23.981 -87.9868,-23.981 -52.0154,0 -89.8294,15.9873 -113.498,47.9902 -23.6691,32.0029 -35.5179,79.3412 -35.5179,141.987l0 308.011z"
         id="path339" /></glyph><glyph
       unicode="S"
       horiz-adv-x="528"
       id="glyph341"><path
         d="M89.9994 143.007c23.329,-24.6613 50.6548,-44.5037 82.0058,-59.4988 31.3226,-14.9952 64.3177,-22.5069 98.9852,-22.5069 43.3415,0 77.0168,9.83616 100.998,29.5085 24.0093,19.644 35.9998,45.4958 35.9998,77.4987 0,16.6676 -2.83463,30.8124 -8.47554,42.4911 -5.66926,11.6787 -13.5212,21.6566 -23.4991,29.9904 -10.0062,8.33381 -21.6849,15.8456 -35.0077,22.5069 -13.3511,6.66138 -27.666,13.6629 -43.0013,21.0046l-93.9963 40.9887c-15.3353,6.68972 -30.8408,14.6834 -46.5162,24.0093 -15.6471,9.32593 -29.9904,20.6644 -43.0013,33.9872 -12.9826,13.3511 -23.4991,29.1683 -31.4927,47.5084 -7.99365,18.34 -11.9905,39.5147 -11.9905,63.4957 0,24.6896 5.15902,47.6784 15.5054,69.0232 10.318,21.3164 24.8313,39.8265 43.4832,55.4737 18.6802,15.6755 40.5068,27.836 65.5082,36.51 25.0014,8.67396 52.4973,13.0109 82.4877,13.0109 39.3446,0 75.5145,-7.51176 108.51,-22.5069 32.9951,-14.9952 61.1713,-34.4974 84.5003,-58.5067l-43.9934 -53.9997c-20.0125,19.3322 -42.3493,34.4974 -67.0106,45.4958 -24.6613,10.9984 -51.9871,16.4975 -82.0058,16.4975 -37.332,0 -67.1523,-8.47554 -89.4892,-25.4833 -22.3369,-17.0078 -33.5053,-40.5068 -33.5053,-70.4972 0,-16.0156 3.34486,-29.5085 10.0062,-40.5068 6.66138,-10.9984 15.1653,-20.6644 25.4833,-28.9982 10.3464,-8.33381 22.0251,-15.6755 35.0077,-21.9967 13.0109,-6.34957 25.8518,-12.1606 38.4942,-17.518l94.0246 -39.9966c18.6519,-7.99365 36.3116,-17.1495 52.9792,-27.4959 16.6676,-10.318 31.0108,-22.3369 43.0013,-35.9998 12.0188,-13.6629 21.5148,-29.6502 28.5164,-47.9902 7.00153,-18.34 10.4881,-39.5147 10.4881,-63.4957 0,-26.0219 -5.15902,-50.343 -15.5054,-73.02 -10.318,-22.6487 -25.1715,-42.4911 -44.5037,-59.4988 -19.3322,-16.9794 -42.8312,-30.3305 -70.4972,-39.9966 -27.666,-9.66608 -58.8185,-14.4849 -93.486,-14.4849 -46.006,0 -88.4971,8.64561 -127.502,25.9935 -39.0045,17.3196 -72.8499,40.9887 -101.508,71.0074l50.0028 57.9965z"
         id="path343" /></glyph><glyph
       unicode="1"
       horiz-adv-x="496"
       id="glyph345"><path
         d="M78.9872 68.0272l146.007 0 0 470.018 -116.024 0 0 52.9101c29.3525,5.41698 54.9257,11.8418 76.4676,19.5263 21.6679,7.68456 41.1943,16.8808 58.579,27.4628l62.9882 0 0 -569.917 132.023 0 0 -68.0272 -360.04 0 0 68.0272z"
         id="path347" /></glyph><glyph
       unicode="d"
       horiz-adv-x="555"
       id="glyph349"><path
         d="M46.9921 242.016c0,39.3071 5.85827,74.8346 17.5118,106.457 11.6535,31.685 27.1496,58.5197 46.4882,80.5039 19.3386,22.0472 41.7008,39.0551 67.0236,51.0236 25.3228,12.0315 51.9685,18.0157 80,18.0157 27.9685,0 52.3465,-5.03937 73.0079,-14.9921 20.6614,-10.0157 41.6378,-23.685 62.9921,-41.0079l-4.0315 82.9606 0 187.024 83.0236 0 0 -712 -68.0315 0 -6.99213 57.0079 -2.96063 0c-19.3386,-18.6457 -41.5118,-34.8346 -66.5197,-48.5039 -25.0079,-13.6693 -51.8425,-20.5354 -80.5039,-20.5354 -61.3543,0 -110.173,22.0472 -146.52,66.0157 -36.2835,44.0315 -54.4882,106.709 -54.4882,188.031zm85.0394 1.00787c0,-58.7087 11.6535,-104.378 34.9606,-137.008 23.3701,-32.6929 56.315,-49.0079 99.0236,-49.0079 22.6772,0 43.9685,5.48031 64,16.5039 19.9685,10.9606 40,27.8425 59.9685,50.5197l0 253.984c-20.6614,18.6457 -40.5039,31.811 -59.4646,39.4961 -19.0236,7.68504 -38.4882,11.4646 -58.5197,11.4646 -19.3386,0 -37.4803,-4.47244 -54.4882,-13.4803 -17.0079,-9.00787 -31.874,-21.6693 -44.5354,-37.9843 -12.6614,-16.315 -22.6142,-35.8425 -29.9843,-58.5197 -7.30709,-22.6772 -10.9606,-48 -10.9606,-75.9685z"
         id="path351" /></glyph><glyph
       unicode="."
       horiz-adv-x="248"
       id="glyph353"><path
         d="M64.9848 49.9965c0,19.3466 5.8465,34.831 17.5041,46.4886 11.693,11.693 25.8309,17.5041 42.52,17.5041 15.9804,0 29.8349,-5.81107 41.4925,-17.5041 11.6576,-11.6576 17.5041,-27.1419 17.5041,-46.4886 0,-18.0001 -5.8465,-32.8467 -17.5041,-44.5043 -11.6576,-11.6576 -25.512,-17.5041 -41.4925,-17.5041 -16.6891,0 -30.827,5.8465 -42.52,17.5041 -11.6576,11.6576 -17.5041,26.5041 -17.5041,44.5043z"
         id="path355" /></glyph><glyph
       unicode="a"
       horiz-adv-x="511"
       id="glyph357"><path
         d="M57.9965 125.999c0,53.3477 23.8392,94.1663 71.5177,122.513 47.6501,28.3179 123.476,48.1603 227.479,59.4988 0,15.3353 -1.50235,30.3305 -4.50706,44.9855 -2.97636,14.6834 -8.30546,27.666 -15.9873,39.0045 -7.6535,11.3385 -17.8298,20.4944 -30.5006,27.4959 -12.6708,7.00153 -28.9982,10.5165 -49.0107,10.5165 -28.6581,0 -55.1619,-5.35745 -79.483,-16.0156 -24.3495,-10.6582 -46.1761,-22.677 -65.5082,-35.9998l-32.9951 57.0044c22.677,14.655 50.343,28.8282 82.9979,42.4911 32.6549,13.6629 68.6547,20.4944 107.999,20.4944 59.3288,0 102.33,-18.1416 129.004,-54.4815 26.6738,-36.3399 39.9966,-84.8404 39.9966,-145.501l0 -298.004 -68.0027 0 -7.00153 57.9965 -1.98424 0c-23.3573,-19.3322 -48.5005,-35.8297 -75.5145,-49.4926 -26.9857,-13.6629 -55.502,-20.4944 -85.4924,-20.4944 -41.3289,0 -75.5145,11.9905 -102.5,35.9998 -27.014,23.981 -40.5068,57.9965 -40.5068,101.99zm81.0137 6.00941c0,-28.0061 8.16373,-48.0186 24.4912,-60.0091 16.3275,-11.9905 36.51,-17.9999 60.491,-17.9999 23.329,0 45.4958,5.49918 66.5004,16.4975 21.0046,10.9984 43.1714,27.1557 66.5004,48.5005l0 135.013c-40.6486,-5.35745 -75.0043,-11.6787 -102.982,-19.0204 -28.0061,-7.31334 -50.5131,-15.9873 -67.5208,-25.9935 -16.9794,-10.0062 -29.1683,-21.4865 -36.4817,-34.4974 -7.34169,-13.0109 -10.9984,-27.1557 -10.9984,-42.4911z"
         id="path359" /></glyph><glyph
       unicode="r"
       horiz-adv-x="346"
       id="glyph361"><path
         d="M82.0058 485.997l68.0027 0 7.00153 -87.9868 2.97636 0c16.6676,30.6707 36.8502,54.9918 60.5193,72.9917 23.6691,17.9999 49.4926,26.9857 77.4987,26.9857 19.3322,0 36.6517,-3.31651 51.9871,-9.97789l-15.9873 -71.9995c-7.99365,2.66455 -15.3353,4.64879 -21.9967,5.98106 -6.66138,1.33228 -14.9952,2.01259 -25.0014,2.01259 -20.6644,0 -42.1793,-8.33381 -64.5161,-25.0014 -22.3369,-16.6676 -41.8108,-45.6659 -58.4784,-86.9947l0 -312.007 -82.0058 0 0 485.997z"
         id="path363" /></glyph><glyph
       unicode="P"
       horiz-adv-x="570"
       id="glyph365"><path
         d="M87.0032 655.996l201.988 0c35.9999,0 69.0032,-3.32058 99.0099,-10.0022 30.0067,-6.6614 55.4982,-17.4938 76.4948,-32.4971 20.9966,-15.0033 37.3362,-34.8256 48.9988,-59.4869 11.6625,-24.6816 17.514,-55.0122 17.514,-91.0122 0,-34.6636 -5.85151,-64.6703 -17.514,-89.9998 -11.6625,-25.3295 -28.1642,-46.3261 -49.505,-62.9897 -21.3205,-16.6839 -46.8323,-29.1765 -76.4948,-37.4982 -29.6625,-8.34194 -62.5038,-12.5129 -98.5037,-12.5129l-117.982 0 0 -259.997 -84.0066 0 0 655.996zm190.994 -327.988c58.0089,0 100.832,10.8324 128.51,32.4971 27.658,21.6647 41.487,55.8221 41.487,102.492 0,47.3385 -14.1529,80.1595 -42.4993,98.5037 -28.3261,18.3239 -70.8255,27.496 -127.498,27.496l-106.987 0 0 -260.989 106.987 0z"
         id="path367" /></glyph><glyph
       unicode="M"
       horiz-adv-x="722"
       id="glyph369"><path
         d="M87.0032 655.996l98.9897 0 127.012 -352.001 46.9943 -133.997 4.00899 0 45.9819 133.997 126.02 352.001 97.9975 0 0 -655.996 -79.0054 0 0 360.991c0,29.3385 1.33633,61.6737 3.98874,97.0054 2.67266,35.3318 5.00111,67.6669 7.00561,97.0054l-3.98874 0 -52.0156 -146.004 -126 -342.991 -47.9864 0 -126 342.991 -52.0156 146.004 -3.98874 0c2.00449,-29.3385 4.17097,-61.6737 6.49942,-97.0054 2.32845,-35.3318 3.5028,-67.6669 3.5028,-97.0054l0 -360.991 -77.001 0 0 655.996z"
         id="path371" /></glyph><glyph
       unicode="o"
       horiz-adv-x="542"
       id="glyph373"><path
         d="M46.0021 241.997c0,40.6771 6.15522,76.839 18.5061,108.506 12.3307,31.667 28.8323,58.4948 49.4847,80.5038 20.6726,21.9887 44.5038,38.6523 71.5139,49.9909 26.9898,11.3386 55.4982,17.0078 85.4846,17.0078 30.0067,0 58.5151,-5.66928 85.5049,-17.0078 27.0101,-11.3386 50.8413,-28.0022 71.4937,-49.9909 20.6726,-22.0089 37.1743,-48.8368 49.505,-80.5038 12.3307,-31.667 18.5061,-67.8289 18.5061,-108.506 0,-39.9887 -6.17546,-75.8266 -18.5061,-107.494 -12.3307,-31.667 -28.8323,-58.3328 -49.505,-79.9976 -20.6524,-21.6647 -44.4836,-38.1664 -71.4937,-49.505 -26.9898,-11.3386 -55.4982,-17.0078 -85.5049,-17.0078 -29.9864,0 -58.4948,5.66928 -85.4846,17.0078 -27.0101,11.3386 -50.8413,27.8402 -71.5139,49.505 -20.6524,21.6647 -37.154,48.3306 -49.4847,79.9976 -12.3509,31.667 -18.5061,67.5049 -18.5061,107.494zm84.9987 0c0,-28.0022 3.34082,-53.3317 10.0022,-75.9886 6.6614,-22.6771 16.1574,-42.1754 28.4881,-58.5151 12.3509,-16.3194 27.172,-28.9943 44.5038,-37.9842 17.3318,-9.0101 36.3441,-13.505 56.9965,-13.505 20.6726,0 39.685,4.49493 57.0167,13.505 17.3318,8.98986 32.1529,21.6647 44.4836,37.9842 12.3509,16.3397 21.847,35.8379 28.5084,58.5151 6.6614,22.6569 10.0022,47.9864 10.0022,75.9886 0,28.0022 -3.34082,53.4937 -10.0022,76.4948 -6.6614,23.0011 -16.1574,42.8435 -28.5084,59.5072 -12.3307,16.6636 -27.1518,29.5005 -44.4836,38.5106 -17.3318,8.98986 -36.3441,13.4848 -57.0167,13.4848 -20.6524,0 -39.6647,-4.49493 -56.9965,-13.4848 -17.3318,-9.0101 -32.1529,-21.847 -44.5038,-38.5106 -12.3307,-16.6636 -21.8267,-36.5061 -28.4881,-59.5072 -6.6614,-23.0011 -10.0022,-48.4926 -10.0022,-76.4948z"
         id="path375" /></glyph><glyph
       unicode="J"
       horiz-adv-x="474"
       id="glyph377"><path
         d="M87.9868 135.013c15.3353,-26.0219 32.3431,-44.8438 51.0233,-56.5225 18.6519,-11.6503 39.6564,-17.4897 62.9854,-17.4897 35.3478,0 61.6815,10.8283 79.0011,32.4848 17.3479,21.6849 25.9935,57.5146 25.9935,107.517l0 454.986 82.9979 0 0 -462.98c0,-28.0061 -3.31651,-54.5099 -9.97789,-79.5113 -6.68972,-25.0014 -17.3479,-46.8281 -32.0029,-65.5082 -14.6834,-18.6519 -33.5053,-33.3352 -56.4941,-43.9934 -23.0172,-10.6582 -50.5131,-15.9873 -82.516,-15.9873 -81.3255,0 -141.335,34.9793 -179.999,104.995l58.9886 42.0092z"
         id="path379" /></glyph><glyph
       unicode="("
       horiz-adv-x="302"
       id="glyph381"><path
         d="M213.986 -176.002c-41.3289,66.6704 -73.6436,136.998 -96.9726,211.01 -23.3573,73.9838 -35.0077,154.997 -35.0077,242.984 0,88.0152 11.6503,168.83 35.0077,242.502 23.329,73.672 55.6437,144.169 96.9726,211.492l51.0233 -23.981c-38.6643,-64.0059 -67.5208,-132.519 -86.5128,-205.511 -18.992,-72.9917 -28.488,-147.826 -28.488,-224.503 0,-76.6483 9.496,-151.483 28.488,-224.503 18.992,-72.9917 47.8485,-141.476 86.5128,-205.482l-51.0233 -24.0093z"
         id="path383" /></glyph><glyph
       unicode="l"
       horiz-adv-x="255"
       id="glyph385"><path
         d="M82.0145 712.005l81.9672 0 0 -620.022c0,-13.3226 2.36217,-22.6296 7.03926,-27.9681 4.62985,-5.3385 9.96835,-8.03137 15.9683,-8.03137 2.69287,0 5.19677,0 7.51169,0 2.31492,0 5.81093,0.661407 10.488,2.03146l11.0077 -62.0305c-5.3385,-2.64563 -11.6691,-4.62985 -18.9918,-5.99991 -7.32272,-1.32281 -16.6769,-1.98422 -28.0153,-1.98422 -31.3223,0 -53.6684,9.35418 -66.9911,28.0153 -13.3226,18.6611 -19.9839,45.9678 -19.9839,81.9672l0 614.022z"
         id="path387" /></glyph><glyph
       unicode="9"
       horiz-adv-x="497"
       id="glyph389"><path
         d="M234.991 309.995c20.6928,0 42.8596,6.51964 66.5004,19.5022 23.6975,12.9826 46.1477,34.8092 67.5208,65.4799 -5.3291,62.702 -20.0125,110.04 -43.9934,142.015 -24.0376,32.0313 -56.3524,48.0186 -97.001,48.0186 -15.3637,0 -29.877,-3.34486 -43.5399,-10.0346 -13.6629,-6.63303 -25.455,-16.1574 -35.4895,-28.4597 -9.97789,-12.359 -17.8015,-27.1557 -23.4707,-44.5037 -5.66926,-17.3479 -8.50388,-36.3399 -8.50388,-57.0327 0,-41.9525 9.63773,-75.0043 28.9699,-98.9852 19.3322,-23.981 49.0391,-35.9998 89.0073,-35.9998zm-137.99 -203.016c13.3228,-15.307 29.14,-27.666 47.5084,-36.9635 18.3117,-9.35427 37.4738,-14.0031 57.4863,-14.0031 22.677,0 43.9934,4.64879 64.0059,14.0031 20.0125,9.29758 37.6439,24.8313 53.0075,46.4879 15.307,21.6566 27.666,49.8328 36.9635,84.4719 9.35427,34.6958 14.3432,77.6688 15.0235,129.032 -20.0125,-25.3416 -43.3131,-45.354 -70.0153,-59.9807 -26.6455,-14.6834 -53.291,-22.0534 -79.9932,-22.0534 -55.3319,0 -99.3254,16.3841 -131.98,49.0391 -32.6549,32.6549 -48.9824,81.9774 -48.9824,147.968 0,30.6707 4.98894,58.5067 14.9668,83.5081 10.0346,25.0014 23.5274,46.4879 40.5352,64.5161 16.9511,17.9715 36.9635,31.9746 59.9807,42.0092 23.0172,9.97789 47.1682,14.9668 72.5098,14.9668 31.2943,0 60.491,-6.29287 87.4766,-18.992 26.9857,-12.6424 50.343,-31.8045 70.0153,-57.4863 19.6723,-25.6817 34.9793,-57.6563 45.9777,-95.9805 10.9984,-38.3809 16.4975,-83.168 16.4975,-134.531 0,-64.0059 -6.63303,-118.487 -20.0125,-163.501 -13.3228,-45.0139 -31.2943,-81.6373 -53.9713,-109.984 -22.677,-28.3463 -48.5288,-48.9824 -77.4987,-62.0217 -29.0266,-12.9826 -59.5272,-19.5022 -91.5018,-19.5022 -34.0155,0 -63.8358,6.34957 -89.5175,18.992 -25.625,12.6991 -47.1682,28.6864 -64.4594,48.0186l45.9777 51.9871z"
         id="path391" /></glyph><glyph
       unicode="["
       horiz-adv-x="303"
       id="glyph393"><path
         d="M93.9963 707.977l178.978 0 0 -47.9619 -116.957 0 0 -765.009 116.957 0 0 -46.9981 -178.978 0 0 859.969z"
         id="path395" /></glyph><glyph
       unicode="G"
       horiz-adv-x="611"
       id="glyph397"><path
         d="M48.9988 328.008c0,52.6635 7.49155,99.9818 22.4949,141.995 15.0033,41.9932 35.9999,77.6691 63.01,106.987 26.9898,29.3385 59.001,51.8334 95.993,67.5049 37.0123,15.6715 77.5071,23.5073 121.505,23.5073 44.6658,0 82.326,-8.50392 113.001,-25.5118 30.6546,-16.9876 55.6602,-35.4937 74.9965,-55.4982l-48.0066 -52.9875c-16.6636,17.3318 -35.8177,31.8289 -57.4824,43.4915 -21.685,11.6625 -48.8368,17.4938 -81.5161,17.4938 -33.3273,0 -63.3339,-6.15522 -89.9998,-18.4859 -26.6659,-12.3307 -49.4847,-30.0067 -68.497,-53.0078 -18.9921,-23.0011 -33.6715,-50.821 -43.9977,-83.5004 -10.3262,-32.6591 -15.4893,-69.3272 -15.4893,-110.004 0,-41.325 4.81889,-78.4993 14.4972,-111.503 9.65802,-32.9831 23.6692,-61.1472 41.9932,-84.4925 18.3239,-23.325 41.001,-41.325 67.9908,-53.9999 27.0101,-12.6546 58.1708,-18.9921 93.5026,-18.9921 23.3453,0 45.6782,3.5028 66.9987,10.4882 21.3408,7.00561 38.6726,16.5017 52.0156,28.5084l0 170.989 -138.999 0 0 69.0032 214.987 0 0 -275.993c-21.3205,-21.3408 -49.6669,-39.3407 -84.9987,-53.9999 -35.3318,-14.6591 -74.9965,-22.0089 -118.994,-22.0089 -43.3295,0 -82.9942,7.67377 -118.994,23.0011 -35.9999,15.3475 -67.019,37.4982 -93.0167,66.5128 -25.9977,28.9943 -46.3261,64.65 -60.9852,106.987 -14.6794,42.3374 -22.0089,90.182 -22.0089,143.514z"
         id="path399" /></glyph><glyph
       unicode="à"
       horiz-adv-x="511"
       id="glyph401"><path
         d="M57.9965 125.999c0,53.3477 23.8392,94.1663 71.5177,122.513 47.6501,28.3179 123.476,48.1603 227.479,59.4988 0,15.3353 -1.50235,30.3305 -4.50706,44.9855 -2.97636,14.6834 -8.30546,27.666 -15.9873,39.0045 -7.6535,11.3385 -17.8298,20.4944 -30.5006,27.4959 -12.6708,7.00153 -28.9982,10.5165 -49.0107,10.5165 -28.6581,0 -55.1619,-5.35745 -79.483,-16.0156 -24.3495,-10.6582 -46.1761,-22.677 -65.5082,-35.9998l-32.9951 57.0044c22.677,14.655 50.343,28.8282 82.9979,42.4911 32.6549,13.6629 68.6547,20.4944 107.999,20.4944 59.3288,0 102.33,-18.1416 129.004,-54.4815 26.6738,-36.3399 39.9966,-84.8404 39.9966,-145.501l0 -298.004 -68.0027 0 -7.00153 57.9965 -1.98424 0c-23.3573,-19.3322 -48.5005,-35.8297 -75.5145,-49.4926 -26.9857,-13.6629 -55.502,-20.4944 -85.4924,-20.4944 -41.3289,0 -75.5145,11.9905 -102.5,35.9998 -27.014,23.981 -40.5068,57.9965 -40.5068,101.99zm81.0137 6.00941c0,-28.0061 8.16373,-48.0186 24.4912,-60.0091 16.3275,-11.9905 36.51,-17.9999 60.491,-17.9999 23.329,0 45.4958,5.49918 66.5004,16.4975 21.0046,10.9984 43.1714,27.1557 66.5004,48.5005l0 135.013c-40.6486,-5.35745 -75.0043,-11.6787 -102.982,-19.0204 -28.0061,-7.31334 -50.5131,-15.9873 -67.5208,-25.9935 -16.9794,-10.0062 -29.1683,-21.4865 -36.4817,-34.4974 -7.34169,-13.0109 -10.9984,-27.1557 -10.9984,-42.4911zm18.992 581.977l86.0026 0 89.9994 -140.994 -63.0138 0 -112.988 140.994z"
         id="path403" /></glyph><glyph
       unicode="z"
       horiz-adv-x="424"
       id="glyph405"><path
         d="M31.0108 43.9934l255.995 374.993 -228.017 0 0 67.0106 332.02 0 0 -43.9934 -255.995 -374.993 263.989 0 0 -67.0106 -367.991 0 0 43.9934z"
         id="path407" /></glyph><glyph
       unicode="6"
       horiz-adv-x="497"
       id="glyph409"><path
         d="M268.031 52.9764c16,0 30.6142,3.33858 43.9685,10.0157 13.3543,6.67717 25.0079,16.189 35.0236,28.5354 9.95276,12.2835 17.8268,26.9606 23.4961,43.9685 5.66929,17.0079 8.50394,36.1575 8.50394,57.5118 0,42.0157 -9.70079,75.0236 -29.0394,99.0236 -19.3386,24 -49.0079,35.9685 -89.0079,35.9685 -19.9685,0 -41.8268,-6.48819 -65.4488,-19.5276 -23.685,-12.9764 -46.1732,-34.4567 -67.5276,-64.4409 5.35433,-62.6772 19.8425,-110.173 43.5276,-142.551 23.622,-32.315 55.811,-48.5039 96.5039,-48.5039zm130.961 478.047c-13.3543,15.3071 -29.1654,27.4646 -47.4961,36.4724 -18.3307,9.00787 -37.4803,13.4803 -57.5118,13.4803 -21.9843,0 -42.9606,-4.66142 -62.9921,-13.9843 -19.9685,-9.32283 -37.6693,-24.6299 -52.9764,-45.9843 -15.3701,-21.3543 -27.6535,-49.1969 -37.0394,-83.5276 -9.32283,-34.3307 -14.2992,-76.7874 -14.9921,-127.496 20.0315,24.6929 43.3386,44.1575 70.0472,58.5197 26.6457,14.2992 52.9764,21.4803 78.9921,21.4803 55.3071,0 99.4646,-16.315 132.472,-49.0079 33.0079,-32.6299 49.5118,-81.9528 49.5118,-147.969 0,-30.6772 -4.97638,-58.5197 -14.9921,-83.5276 -10.0157,-25.0079 -23.685,-46.4882 -41.0079,-64.5039 -17.3228,-17.9528 -37.3543,-32 -60.0315,-41.9528 -22.6142,-10.0157 -46.9921,-15.0551 -72.9449,-15.0551 -31.3701,0 -60.3465,6.3622 -87.0551,19.0236 -26.6457,12.6614 -49.8268,31.811 -69.4803,57.5118 -19.6535,25.6378 -35.1496,57.6378 -46.4882,96 -11.3386,38.2992 -17.0079,83.1496 -17.0079,134.488 0,64 6.67717,118.488 20.0315,163.528 13.2913,44.9764 31.3071,81.6378 53.9843,109.984 22.6772,28.3465 48.5039,49.0079 77.4803,61.9843 28.9764,13.0394 59.5276,19.5276 91.5276,19.5276 34.6457,0 64.5039,-6.48819 89.4488,-19.5276 25.0079,-12.9764 46.5512,-29.1654 64.5039,-48.5039l-45.9843 -50.9606z"
         id="path411" /></glyph><glyph
       unicode="X"
       horiz-adv-x="508"
       id="glyph413"><path
         d="M204.031 339.024l-179.024 316.976 91.9685 0 90.0157 -168c8,-15.3071 15.811,-30.1732 23.4961,-44.4724 7.68504,-14.3622 16.8189,-31.1811 27.5276,-50.5197l3.9685 0c9.32283,19.3386 17.3228,36.1575 24,50.5197 6.67717,14.2992 14.0472,29.1654 22.0472,44.4724l86.9921 168 88 0 -178.016 -321.008 190.992 -334.992 -91.9685 0 -97.0079 177.008c-8.69291,16 -17.5118,32.5039 -26.5197,49.5118 -9.00787,17.0079 -18.8346,35.4646 -29.4803,55.4961l-4.0315 0c-9.32283,-20.0315 -18.1417,-38.4882 -26.5197,-55.4961 -8.31496,-17.0079 -16.8189,-33.5118 -25.4488,-49.5118l-94.9921 -177.008 -87.0551 0 191.055 339.024z"
         id="path415" /></glyph><glyph
       unicode="i"
       horiz-adv-x="245"
       id="glyph417"><path
         d="M124.014 586.007c-16.0155,0 -29.5271,5.0078 -40.5348,14.9761 -10.9605,10.0156 -16.4879,22.6768 -16.4879,38.0309 0,15.9683 5.52747,28.8184 16.4879,38.5033 11.0077,9.63764 24.5193,14.5037 40.5348,14.5037 15.9683,0 29.4799,-4.86607 40.4876,-14.5037 11.0077,-9.68489 16.4879,-22.5351 16.4879,-38.5033 0,-15.3541 -5.48023,-28.0153 -16.4879,-38.0309 -11.0077,-9.96835 -24.5193,-14.9761 -40.4876,-14.9761zm-41.9993 -100.014l81.9672 0 0 -485.992 -81.9672 0 0 485.992z"
         id="path419" /></glyph></font>
</defs>
</svg>
